<svg width="548" height="228" viewBox="0 0 548 228" fill="none" xmlns="http://www.w3.org/2000/svg">
<g clip-path="url(#clip0)">
<path d="M39.2815 197.903L26.7166 197.064L30.9049 215.932L45.1451 210.062L39.2815 197.903Z" fill="#FFB9B9"/>
<path d="M154.461 162.683L125.143 134.172L108.389 147.17L75.3012 187.002L79.0709 192.872L119.279 165.618L146.503 201.257L172.471 188.26L154.461 162.683Z" fill="#2F2E41"/>
<path opacity="0.1" d="M154.461 162.683L125.143 134.172L108.389 147.17L75.3012 187.002L79.0709 192.872L119.279 165.618L146.503 201.257L172.471 188.26L154.461 162.683Z" fill="black"/>
<path d="M156.974 181.551L153.205 184.486L122.63 174.004L115.51 171.069L101.269 174.004C101.269 174.004 101.269 162.264 114.672 162.684L128.493 166.038L144.828 167.296L156.974 181.551Z" fill="#FFB9B9"/>
<path d="M184.199 212.578L174.984 218.448H164.094L113.415 199.58L39.2815 212.997L37.1871 197.064L105.039 167.296L164.514 187.002L184.199 212.578Z" fill="#2F2E41"/>
<path d="M124.724 137.946L118.441 139.204L117.072 137.605C115.988 136.339 115.302 134.781 115.098 133.127C114.895 131.472 115.184 129.794 115.928 128.303L133.519 105.242C133.519 105.242 138.545 93.9217 146.503 98.5338C154.461 103.146 139.802 110.693 139.802 110.693L131.006 124.529L131.844 131.657L124.724 137.946Z" fill="#FFB9B9"/>
<path d="M164.513 110.693C173.535 110.693 180.848 103.372 180.848 94.341C180.848 85.3101 173.535 77.9891 164.513 77.9891C155.492 77.9891 148.179 85.3101 148.179 94.341C148.179 103.372 155.492 110.693 164.513 110.693Z" fill="#FFB9B9"/>
<path d="M157.184 106.29L164.723 124.319L182.733 116.772C182.733 116.772 176.869 102.517 176.869 102.098C176.869 101.678 157.184 106.29 157.184 106.29Z" fill="#FFB9B9"/>
<path d="M206.778 159.627C206.778 169.496 205.224 179.303 202.175 188.687L200.952 192.452L195.088 219.286L188.806 220.963L184.199 215.093L174.984 208.385L168.283 197.484L162.536 187.899L160.744 184.905L154.461 153.459L130.588 140.042L122.63 138.785L124.305 134.173L131.425 124.529L138.546 123.691L140.64 122.013L142.315 122.852L149.016 119.078L151.111 119.917L163.357 121.057L170.796 119.498L181.493 113.749L185.874 114.466L200.952 127.045C204.807 137.474 206.779 148.506 206.778 159.627Z" fill="#575A89"/>
<path d="M30.5734 204.395C30.5734 204.395 34.3248 198.031 32.7403 197.287C31.1558 196.544 24.4266 193.582 24.4266 193.582L14.5585 190.308C14.5585 190.308 0.319281 169.124 0.00672848 187.546C-0.305824 205.969 10.3746 210.397 10.3746 210.397C10.3746 210.397 19.9002 230.919 25.2961 227.646C30.692 224.374 36.0913 213.266 36.0913 213.266C36.0913 213.266 26.3609 208.029 30.5734 204.395Z" fill="#2F2E41"/>
<path opacity="0.1" d="M202.208 155.975L186.293 166.457L162.537 187.899L160.744 184.905L155.718 159.749H156.974L169.958 135.85L202.208 155.975Z" fill="black"/>
<path d="M169.958 133.334L156.974 157.233H152.367L149.435 165.618L142.734 167.296L160.744 187.002L186.293 163.941L202.208 153.459L169.958 133.334Z" fill="#575A89"/>
<path d="M151.808 82.1826L150.039 82.8643C149.766 82.6798 149.534 82.4427 149.354 82.1671C149.175 81.8914 149.052 81.5826 148.993 81.2588C148.934 80.935 148.94 80.6028 149.012 80.2815C149.083 79.9601 149.217 79.6563 149.407 79.3876L146.136 79.2344C148.236 76.4353 150.905 74.1143 153.968 72.4251C157.03 70.7359 160.416 69.717 163.902 69.4358C167.387 69.1546 170.892 69.6175 174.185 70.7938C177.479 71.9702 180.485 73.8332 183.005 76.2596C183.154 75.7462 184.777 76.745 185.44 77.7578C185.663 76.9224 187.185 80.9608 187.723 83.8153C187.972 82.8649 188.93 84.3992 188.091 85.8715C188.623 85.7937 188.863 87.1561 188.451 87.9151C189.033 87.6414 188.935 89.2676 188.304 90.3544C189.135 90.2806 181.755 101.745 178.768 108.445C177.9 104.455 176.925 100.253 174.127 97.2808C173.652 96.7756 173.131 96.3154 172.611 95.856L169.8 93.3716C166.53 90.4826 163.556 86.917 159.201 85.8373C156.208 85.0952 154.315 84.9277 155.946 81.5513C154.473 82.167 153.096 83.0825 151.61 83.6543C151.629 83.1826 151.837 82.6547 151.808 82.1826Z" fill="#ECCD80"/>
<path d="M172.681 99.1627C174.3 99.1627 175.612 97.8487 175.612 96.2277C175.612 94.6068 174.3 93.2928 172.681 93.2928C171.061 93.2928 169.749 94.6068 169.749 96.2277C169.749 97.8487 171.061 99.1627 172.681 99.1627Z" fill="#FFB9B9"/>
<path d="M519.544 2.71763H387.83V0H328.105V2.71763H195.848C194.678 2.71763 193.519 2.94832 192.438 3.39654C191.357 3.84475 190.375 4.50172 189.548 5.32992C188.721 6.15812 188.064 7.14133 187.617 8.22343C187.169 9.30552 186.938 10.4653 186.938 11.6366V192.185C186.938 193.357 187.169 194.516 187.617 195.598C188.064 196.681 188.721 197.664 189.548 198.492C190.375 199.32 191.357 199.977 192.438 200.425C193.519 200.874 194.678 201.104 195.848 201.104H519.544C521.907 201.104 524.173 200.165 525.844 198.492C527.515 196.819 528.454 194.551 528.454 192.185V11.6366C528.454 10.4653 528.223 9.30552 527.776 8.22343C527.328 7.14133 526.672 6.15812 525.844 5.32992C525.017 4.50172 524.035 3.84475 522.954 3.39654C521.873 2.94832 520.714 2.71763 519.544 2.71763Z" fill="#3F3D56"/>
<path d="M516.509 18.4798H198.883V197.843H516.509V18.4798Z" fill="#F07178"/>
<path d="M357.425 13.5881C359.224 13.5881 360.682 12.1281 360.682 10.327C360.682 8.52589 359.224 7.06583 357.425 7.06583C355.625 7.06583 354.167 8.52589 354.167 10.327C354.167 12.1281 355.625 13.5881 357.425 13.5881Z" fill="#F07178"/>
<path d="M425.673 197.843H198.883V18.48L425.673 197.843Z" fill="black" fill-opacity="0.1"/>
<path d="M248.582 184.421C265.444 184.421 279.113 170.738 279.113 153.858C279.113 136.978 265.444 123.294 248.582 123.294C231.72 123.294 218.051 136.978 218.051 153.858C218.051 170.738 231.72 184.421 248.582 184.421Z" fill="#F2F2F2"/>
<path d="M255.379 176.829C247.867 176.829 240.525 174.6 234.279 170.422C228.034 166.245 223.166 160.307 220.292 153.36C217.417 146.413 216.665 138.769 218.131 131.394C219.596 124.019 223.213 117.245 228.524 111.928C233.836 106.611 240.603 102.991 247.97 101.524C255.337 100.057 262.973 100.81 269.912 103.687C276.852 106.565 282.783 111.437 286.956 117.69C291.129 123.942 293.357 131.292 293.357 138.811C293.345 148.891 289.34 158.554 282.22 165.681C275.101 172.809 265.448 176.818 255.379 176.829ZM255.379 101.29C247.966 101.29 240.719 103.491 234.555 107.614C228.391 111.736 223.587 117.596 220.75 124.453C217.914 131.309 217.171 138.853 218.618 146.131C220.064 153.41 223.634 160.095 228.875 165.343C234.117 170.59 240.796 174.164 248.066 175.611C255.337 177.059 262.873 176.316 269.722 173.476C276.571 170.636 282.425 165.827 286.543 159.657C290.662 153.486 292.86 146.232 292.86 138.811C292.849 128.863 288.896 119.326 281.87 112.292C274.843 105.258 265.316 101.301 255.379 101.29Z" fill="#3F3D56"/>
<path d="M461.205 115.212H431.535V121.418H461.205V115.212Z" fill="#3F3D56"/>
<path d="M497.074 66.8922H395.666V69.552H497.074V66.8922Z" fill="#3F3D56"/>
<path d="M497.074 75.3148H395.666V77.9746H497.074V75.3148Z" fill="#3F3D56"/>
<path d="M497.074 83.7375H395.666V86.3973H497.074V83.7375Z" fill="#3F3D56"/>
<path d="M497.074 92.1603H395.666V94.8201H497.074V92.1603Z" fill="#3F3D56"/>
<path d="M497.074 100.583H395.666V103.243H497.074V100.583Z" fill="#3F3D56"/>
<path d="M497.074 22.1188H484.675V34.5312H497.074V22.1188Z" fill="#F2F2F2"/>
<path d="M502.831 40.2941H487.775V25.2218H502.831V40.2941ZM488.43 39.6388H502.177V25.8772H488.43V39.6388Z" fill="#3F3D56"/>
<path d="M537.372 194.582H506.374V192.346C506.374 192.288 506.362 192.23 506.34 192.177C506.318 192.123 506.285 192.074 506.244 192.033C506.203 191.992 506.154 191.959 506.101 191.937C506.047 191.914 505.989 191.903 505.931 191.903H495.303C495.245 191.903 495.187 191.914 495.134 191.937C495.08 191.959 495.031 191.992 494.99 192.033C494.949 192.074 494.916 192.123 494.894 192.177C494.872 192.23 494.86 192.288 494.86 192.346V194.582H488.218V192.346C488.218 192.288 488.206 192.23 488.184 192.177C488.162 192.123 488.129 192.074 488.088 192.033C488.047 191.992 487.998 191.959 487.944 191.937C487.891 191.914 487.833 191.903 487.775 191.903H477.147C477.089 191.903 477.031 191.914 476.978 191.937C476.924 191.959 476.875 191.992 476.834 192.033C476.793 192.074 476.76 192.123 476.738 192.177C476.716 192.23 476.704 192.288 476.704 192.346V194.582H470.062V192.346C470.062 192.288 470.05 192.23 470.028 192.177C470.006 192.123 469.973 192.074 469.932 192.033C469.891 191.992 469.842 191.959 469.788 191.937C469.735 191.914 469.677 191.903 469.619 191.903H458.991C458.933 191.903 458.875 191.914 458.821 191.937C458.768 191.959 458.719 191.992 458.678 192.033C458.637 192.074 458.604 192.123 458.582 192.177C458.56 192.23 458.548 192.288 458.548 192.346V194.582H451.906V192.346C451.906 192.288 451.894 192.23 451.872 192.177C451.85 192.123 451.817 192.074 451.776 192.033C451.735 191.992 451.686 191.959 451.632 191.937C451.579 191.914 451.521 191.903 451.463 191.903H440.835C440.777 191.903 440.719 191.914 440.665 191.937C440.612 191.959 440.563 191.992 440.522 192.033C440.481 192.074 440.448 192.123 440.426 192.177C440.403 192.23 440.392 192.288 440.392 192.346V194.582H433.75V192.346C433.75 192.288 433.738 192.23 433.716 192.177C433.694 192.123 433.661 192.074 433.62 192.033C433.579 191.992 433.53 191.959 433.476 191.937C433.422 191.914 433.365 191.903 433.307 191.903H422.679C422.621 191.903 422.563 191.914 422.509 191.937C422.456 191.959 422.407 191.992 422.366 192.033C422.324 192.074 422.292 192.123 422.27 192.177C422.247 192.23 422.236 192.288 422.236 192.346V194.582H415.593V192.346C415.593 192.288 415.582 192.23 415.56 192.177C415.537 192.123 415.505 192.074 415.464 192.033C415.423 191.992 415.374 191.959 415.32 191.937C415.266 191.914 415.209 191.903 415.151 191.903H404.523C404.464 191.903 404.407 191.914 404.353 191.937C404.299 191.959 404.251 191.992 404.21 192.033C404.168 192.074 404.136 192.123 404.114 192.177C404.091 192.23 404.08 192.288 404.08 192.346V194.582H397.437V192.346C397.437 192.288 397.426 192.23 397.404 192.177C397.381 192.123 397.349 192.074 397.308 192.033C397.267 191.992 397.218 191.959 397.164 191.937C397.11 191.914 397.053 191.903 396.995 191.903H313.742C313.684 191.903 313.626 191.914 313.573 191.937C313.519 191.959 313.47 191.992 313.429 192.033C313.388 192.074 313.355 192.123 313.333 192.177C313.311 192.23 313.299 192.288 313.299 192.346V194.582H306.657V192.346C306.657 192.288 306.645 192.23 306.623 192.177C306.601 192.123 306.568 192.074 306.527 192.033C306.486 191.992 306.437 191.959 306.383 191.937C306.33 191.914 306.272 191.903 306.214 191.903H295.586C295.528 191.903 295.47 191.914 295.417 191.937C295.363 191.959 295.314 191.992 295.273 192.033C295.232 192.074 295.199 192.123 295.177 192.177C295.155 192.23 295.143 192.288 295.143 192.346V194.582H288.501V192.346C288.501 192.288 288.489 192.23 288.467 192.177C288.445 192.123 288.412 192.074 288.371 192.033C288.33 191.992 288.281 191.959 288.227 191.937C288.174 191.914 288.116 191.903 288.058 191.903H277.43C277.372 191.903 277.314 191.914 277.261 191.937C277.207 191.959 277.158 191.992 277.117 192.033C277.076 192.074 277.043 192.123 277.021 192.177C276.999 192.23 276.987 192.288 276.987 192.346V194.582H270.345V192.346C270.345 192.288 270.333 192.23 270.311 192.177C270.289 192.123 270.256 192.074 270.215 192.033C270.174 191.992 270.125 191.959 270.071 191.937C270.018 191.914 269.96 191.903 269.902 191.903H259.274C259.216 191.903 259.158 191.914 259.104 191.937C259.051 191.959 259.002 191.992 258.961 192.033C258.92 192.074 258.887 192.123 258.865 192.177C258.843 192.23 258.831 192.288 258.831 192.346V194.582H252.189V192.346C252.189 192.288 252.177 192.23 252.155 192.177C252.133 192.123 252.1 192.074 252.059 192.033C252.018 191.992 251.969 191.959 251.915 191.937C251.862 191.914 251.804 191.903 251.746 191.903H241.118C241.06 191.903 241.002 191.914 240.948 191.937C240.895 191.959 240.846 191.992 240.805 192.033C240.764 192.074 240.731 192.123 240.709 192.177C240.686 192.23 240.675 192.288 240.675 192.346V194.582H234.033V192.346C234.033 192.288 234.021 192.23 233.999 192.177C233.977 192.123 233.944 192.074 233.903 192.033C233.862 191.992 233.813 191.959 233.759 191.937C233.705 191.914 233.648 191.903 233.59 191.903H222.962C222.904 191.903 222.846 191.914 222.792 191.937C222.739 191.959 222.69 191.992 222.649 192.033C222.607 192.074 222.575 192.123 222.553 192.177C222.53 192.23 222.519 192.288 222.519 192.346V194.582H215.876V192.346C215.876 192.288 215.865 192.23 215.843 192.177C215.82 192.123 215.788 192.074 215.747 192.033C215.706 191.992 215.657 191.959 215.603 191.937C215.549 191.914 215.492 191.903 215.434 191.903H204.806C204.747 191.903 204.69 191.914 204.636 191.937C204.582 191.959 204.534 191.992 204.493 192.033C204.451 192.074 204.419 192.123 204.396 192.177C204.374 192.23 204.363 192.288 204.363 192.346V194.582H183.993C181.174 194.582 178.471 195.703 176.477 197.698C174.484 199.693 173.365 202.399 173.365 205.221V210.032C173.365 212.854 174.484 215.56 176.477 217.555C178.471 219.55 181.174 220.671 183.993 220.671H537.372C540.191 220.671 542.894 219.55 544.887 217.555C546.88 215.56 548 212.854 548 210.032V205.221C548 202.399 546.88 199.693 544.887 197.698C542.894 195.703 540.191 194.582 537.372 194.582Z" fill="#3F3D56"/>
</g>
<defs>
<clipPath id="clip0">
<rect width="548" height="228" fill="white"/>
</clipPath>
</defs>
</svg>
