<svg width="364" height="292" viewBox="0 0 364 292" fill="none" xmlns="http://www.w3.org/2000/svg">
<g clip-path="url(#clip0)">
<path opacity="0.1" d="M211.486 33.3809C188.15 32.7103 165.926 26.4462 144.718 19.5922C123.51 12.7382 102.457 5.15741 79.6803 1.52676C65.0316 -0.808226 48.2798 -1.13828 36.4765 5.38915C25.1163 11.6708 21.448 22.5171 19.4749 32.5839C17.9872 40.1541 17.1149 48.1247 21.1842 55.2104C23.9979 60.1262 29.0238 64.266 32.4916 68.9781C44.5552 85.3792 36.0298 105.601 22.9533 121.612C16.8195 129.122 9.70447 136.289 4.97048 144.284C0.236494 152.279 -1.9441 161.447 2.18847 169.593C6.2929 177.669 16.0739 183.747 26.6709 188.02C48.1919 196.693 73.5535 199.176 98.2821 200.584C153.022 203.695 208.057 202.339 262.945 200.998C283.256 200.499 303.658 199.994 323.642 197.381C334.739 195.931 346.194 193.631 354.241 188.077C364.469 181.026 367.001 169.084 360.15 160.243C348.656 145.411 316.89 141.728 308.839 125.811C304.415 117.051 308.959 107.289 315.384 99.1644C329.171 81.7345 352.282 66.443 353.499 46.5201C354.332 32.8261 343.225 19.1322 326.048 12.6575C308.044 5.87019 283.076 6.72343 269.775 17.9595C256.125 29.5256 232.089 33.9884 211.486 33.3809Z" fill="#F07178"/>
<path opacity="0.1" d="M153.151 292C209.627 292 255.41 287.391 255.41 281.705C255.41 276.019 209.627 271.41 153.151 271.41C96.6751 271.41 50.8921 276.019 50.8921 281.705C50.8921 287.391 96.6751 292 153.151 292Z" fill="#F07178"/>
<path d="M59.6039 280.588C59.6039 280.588 55.0669 254.925 38.2271 242.207C31.1613 236.87 25.9912 229.612 23.7332 221.346C22.6706 217.43 21.9898 213.42 21.7003 209.373" stroke="#535461" stroke-width="2" stroke-miterlimit="10"/>
<path d="M11.1421 201.297C12.5489 204.046 21.9501 209.612 21.9501 209.612C21.9501 209.612 23.1318 199.215 21.7144 196.462C20.2971 193.709 16.7905 192.561 13.8643 193.895C10.9381 195.23 9.72471 198.544 11.1421 201.297Z" fill="#F07178"/>
<path d="M10.2453 220.535C13.0238 222.119 24.1166 221.978 24.1166 221.978C24.1166 221.978 19.1118 212.645 16.3439 211.062C13.5759 209.478 9.95686 210.314 8.2757 212.93C6.59454 215.546 7.47029 218.952 10.2453 220.535Z" fill="#F07178"/>
<path d="M24.0357 246.42C27.2785 246.466 36.7781 241.066 36.7781 241.066C36.7781 241.066 27.4613 235.391 24.2151 235.342C20.9688 235.293 18.2994 237.737 18.236 240.795C18.1727 243.854 20.7894 246.364 24.0357 246.42Z" fill="#F07178"/>
<path d="M39.1451 263.776C42.3316 264.342 52.6648 260.529 52.6648 260.529C52.6648 260.529 44.4981 253.443 41.3151 252.888C38.1322 252.333 35.0547 254.293 34.4568 257.312C33.8589 260.332 35.9551 263.215 39.1451 263.776Z" fill="#F07178"/>
<path d="M35.4908 217.435C34.3829 220.31 25.643 226.757 25.643 226.757C25.643 226.757 23.3288 216.532 24.4366 213.657C25.5445 210.781 28.9174 209.296 31.9667 210.339C35.016 211.381 36.5987 214.563 35.4908 217.435Z" fill="#F07178"/>
<path d="M52.8898 237.955C50.9203 240.388 40.5378 244.075 40.5378 244.075C40.5378 244.075 41.593 233.664 43.5485 231.234C44.5363 230.055 45.9333 229.292 47.4603 229.097C48.9873 228.901 50.5319 229.288 51.7855 230.181C52.394 230.599 52.909 231.139 53.2979 231.767C53.6868 232.394 53.9412 233.095 54.0449 233.826C54.1487 234.556 54.0997 235.301 53.9008 236.011C53.702 236.722 53.3578 237.384 52.8898 237.955Z" fill="#F07178"/>
<path d="M66.8948 260.086C65.3895 262.797 55.8196 268.085 55.8196 268.085C55.8196 268.085 54.979 257.66 56.4843 254.949C57.9896 252.238 61.5383 251.192 64.4153 252.611C67.2922 254.029 68.3966 257.375 66.8948 260.086Z" fill="#F07178"/>
<path opacity="0.25" d="M11.1421 201.297C12.5489 204.046 21.9501 209.612 21.9501 209.612C21.9501 209.612 23.1318 199.215 21.7144 196.462C20.2971 193.709 16.7905 192.561 13.8643 193.895C10.9381 195.23 9.72471 198.544 11.1421 201.297Z" fill="black"/>
<path opacity="0.25" d="M10.2453 220.535C13.0238 222.119 24.1166 221.978 24.1166 221.978C24.1166 221.978 19.1118 212.645 16.3439 211.062C13.5759 209.478 9.95686 210.314 8.2757 212.93C6.59454 215.546 7.47029 218.952 10.2453 220.535Z" fill="black"/>
<path opacity="0.25" d="M24.0357 246.42C27.2785 246.466 36.7781 241.066 36.7781 241.066C36.7781 241.066 27.4613 235.391 24.2151 235.342C20.9688 235.293 18.2994 237.737 18.236 240.795C18.1727 243.854 20.7894 246.364 24.0357 246.42Z" fill="black"/>
<path opacity="0.25" d="M39.1451 263.776C42.3316 264.342 52.6648 260.529 52.6648 260.529C52.6648 260.529 44.4981 253.443 41.3151 252.888C38.1322 252.333 35.0547 254.293 34.4568 257.312C33.8589 260.332 35.9551 263.215 39.1451 263.776Z" fill="black"/>
<path opacity="0.25" d="M35.4908 217.435C34.3829 220.31 25.643 226.757 25.643 226.757C25.643 226.757 23.3288 216.532 24.4366 213.657C25.5445 210.781 28.9174 209.296 31.9667 210.339C35.016 211.381 36.5987 214.563 35.4908 217.435Z" fill="black"/>
<path opacity="0.25" d="M52.8898 237.955C50.9203 240.388 40.5378 244.075 40.5378 244.075C40.5378 244.075 41.593 233.664 43.5485 231.234C44.5363 230.055 45.9333 229.292 47.4603 229.097C48.9873 228.901 50.5319 229.288 51.7855 230.181C52.394 230.599 52.909 231.139 53.2979 231.767C53.6868 232.394 53.9412 233.095 54.0449 233.826C54.1487 234.556 54.0997 235.301 53.9008 236.011C53.702 236.722 53.3578 237.384 52.8898 237.955Z" fill="black"/>
<path opacity="0.25" d="M66.8948 260.086C65.3895 262.797 55.8196 268.085 55.8196 268.085C55.8196 268.085 54.979 257.66 56.4843 254.949C57.9896 252.238 61.5383 251.192 64.4153 252.611C67.2922 254.029 68.3966 257.375 66.8948 260.086Z" fill="black"/>
<path d="M59.0341 279.914C59.0341 279.914 65.9171 254.717 55.9919 236.655C51.8277 229.078 50.2204 220.468 51.7116 212.048C52.4275 208.045 53.5288 204.12 55.0001 200.328" stroke="#535461" stroke-width="2" stroke-miterlimit="10"/>
<path d="M48.8171 188.913C48.9296 191.968 55.1232 200.644 55.1232 200.644C55.1232 200.644 60.6731 191.588 60.5606 188.53C60.448 185.472 57.7293 183.081 54.4866 183.186C51.2438 183.291 48.701 185.855 48.8171 188.913Z" fill="#F07178"/>
<path d="M39.7289 206.16C41.5859 208.667 51.7855 212.775 51.7855 212.775C51.7855 212.775 51.2227 202.333 49.3657 199.822C48.4265 198.606 47.0618 197.789 45.545 197.535C44.0281 197.28 42.4709 197.607 41.185 198.45C40.5601 198.841 40.023 199.358 39.6074 199.967C39.1919 200.576 38.9068 201.263 38.7701 201.987C38.6334 202.711 38.648 203.456 38.813 204.174C38.978 204.892 39.2898 205.568 39.7289 206.16Z" fill="#F07178"/>
<path d="M41.2061 235.082C44.1534 236.364 55.1618 235.058 55.1618 235.058C55.1618 235.058 49.0808 226.308 46.1335 225.026C43.1862 223.745 39.6972 224.956 38.3361 227.733C36.975 230.511 38.2623 233.801 41.2061 235.082Z" fill="#F07178"/>
<path d="M47.5544 256.729C50.2309 258.464 61.3132 258.924 61.3132 258.924C61.3132 258.924 56.8887 249.335 54.2158 247.604C52.9275 246.766 51.3698 246.445 49.8547 246.705C48.3395 246.966 46.9789 247.788 46.0456 249.008C45.6071 249.604 45.297 250.284 45.135 251.005C44.973 251.726 44.9626 252.473 45.1044 253.199C45.2462 253.925 45.5371 254.613 45.9588 255.22C46.3805 255.828 46.9238 256.342 47.5544 256.729Z" fill="#F07178"/>
<path d="M64.141 212.968C61.89 215.174 51.1278 217.733 51.1278 217.733C51.1278 217.733 53.4104 207.498 55.6578 205.293C56.7699 204.229 58.2428 203.622 59.7829 203.593C61.3231 203.565 62.8176 204.116 63.9686 205.138C64.5218 205.625 64.9679 206.221 65.2788 206.888C65.5897 207.555 65.7585 208.28 65.7747 209.016C65.7909 209.752 65.6541 210.483 65.3729 211.163C65.0917 211.843 64.6722 212.458 64.141 212.968Z" fill="#F07178"/>
<path d="M71.2103 238.372C68.365 239.844 57.2897 239.25 57.2897 239.25C57.2897 239.25 62.7165 230.121 65.5618 228.66C68.4072 227.2 71.9805 228.172 73.5386 230.855C75.0966 233.537 74.0697 236.901 71.2103 238.372Z" fill="#F07178"/>
<path d="M74.5128 263.955C71.97 265.859 60.9474 267.038 60.9474 267.038C60.9474 267.038 64.6615 257.182 67.2043 255.279C68.4404 254.363 69.977 253.947 71.5073 254.113C73.0375 254.279 74.4487 255.015 75.4589 256.174C75.9366 256.735 76.2927 257.389 76.505 258.094C76.7172 258.799 76.7809 259.541 76.692 260.272C76.6031 261.003 76.3636 261.707 75.9886 262.341C75.6135 262.975 75.1111 263.525 74.5128 263.955Z" fill="#F07178"/>
<path d="M348.968 132.782C349.179 132.206 347.596 129.014 347.596 128.856C347.596 128.698 345.961 126.918 345.961 125.924C345.961 124.931 343.794 122.785 343.794 122.785C343.794 122.785 340.893 121.581 340.576 118.965C340.26 116.349 337.098 116.293 337.091 116.293C337.091 116.293 337.091 116.054 337.112 115.693C337.112 114.878 337.087 113.424 336.722 112.631C336.345 111.908 335.7 111.363 334.924 111.11C334.924 111.11 334.608 109.07 333.975 108.442C333.621 108.073 333.367 107.62 333.237 107.126C333.108 106.632 333.106 106.114 333.233 105.619C333.549 104.625 332.811 102.108 331.277 101.756C329.744 101.405 328.006 100.815 328.006 100.815C328.006 100.815 327.834 100.847 327.584 100.882L327.373 100.815C327.006 100.883 326.635 100.929 326.262 100.952C325.938 100.964 325.621 100.859 325.368 100.657C324.837 100.082 320.561 98.9825 319.769 98.9825C318.978 98.9825 316.706 97.9291 316.706 97.9291L314.441 96.2016C313.804 95.717 312.626 93.7437 312.454 93.4663L312.433 93.4277C312.238 92.9818 312.078 92.5216 311.954 92.0513C312.726 91.2454 313.386 90.3396 313.917 89.3581C313.973 89.2563 314.022 89.151 314.072 89.0491C314.191 89.0471 314.309 89.0282 314.423 88.993C314.469 88.993 314.515 88.9579 314.56 88.9403C315.096 88.6588 315.499 88.1782 315.682 87.6025C315.721 87.4901 315.756 87.3743 315.784 87.2514C315.784 87.2128 315.784 87.1706 315.809 87.132C315.834 87.0934 315.844 86.974 315.858 86.8932C315.872 86.8125 315.876 86.8019 315.883 86.7598C315.89 86.7177 315.907 86.6018 315.918 86.521C315.929 86.4403 315.918 86.4333 315.918 86.3911C315.918 86.2893 315.943 86.191 315.957 86.0927C315.992 85.7213 316.048 85.3521 316.122 84.9866C316.439 83.5821 317.293 82.3672 317.902 81.054C317.99 80.8679 318.07 80.6748 318.144 80.4817C318.218 80.2885 318.292 80.0603 318.352 79.8461L318.405 79.6495C318.443 79.495 318.478 79.337 318.51 79.179C318.51 79.1088 318.538 79.0385 318.549 78.9683C318.584 78.7506 318.616 78.5329 318.633 78.3117C318.747 77.0577 318.567 75.7945 318.109 74.6214C317.712 73.6382 317.124 72.7534 316.723 71.7702C316.115 70.2815 315.957 68.6101 315.215 67.1775C313.973 64.7969 311.047 63.6065 308.641 64.5019C307.491 64.9268 306.496 65.7554 305.332 66.1276C303.77 66.6227 302.103 66.2505 300.489 66.0258C298.874 65.8011 297.088 65.7835 295.79 66.8369C294.295 68.0483 293.884 70.3271 292.48 71.6579C291.893 72.2162 291.158 72.5743 290.535 73.0905C290.098 73.4402 289.762 73.8994 289.561 74.4212C289.561 74.4599 289.536 74.495 289.526 74.5336C289.515 74.5722 289.501 74.6214 289.491 74.667C289.48 74.7127 289.47 74.7724 289.463 74.825C289.456 74.8777 289.463 74.8988 289.463 74.9339C289.456 75.0274 289.456 75.1213 289.463 75.2148C289.473 75.3034 289.488 75.3913 289.508 75.4781C289.508 75.5027 289.508 75.5273 289.508 75.5519C289.508 75.5764 289.55 75.6958 289.575 75.7696C289.574 75.7836 289.574 75.7977 289.575 75.8117C289.603 75.8924 289.635 75.9697 289.667 76.0505L289.719 76.1698L289.762 76.2682C289.968 76.6544 290.132 77.0618 290.25 77.483C290.316 77.7496 290.3 78.0297 290.205 78.2871C290.061 78.5785 289.862 78.8387 289.617 79.0526C288.567 80.1435 287.756 81.441 287.236 82.8623C287.176 83.0238 287.117 83.1853 287.064 83.3539L287.138 83.3714C287.288 83.4174 287.442 83.4515 287.599 83.4733C287.686 83.4733 287.774 83.4943 287.866 83.5014C288.227 83.5204 288.589 83.492 288.942 83.4171C289.03 83.3995 289.121 83.3785 289.209 83.3539C289.571 83.254 289.924 83.1236 290.264 82.9641C290.264 83.0695 290.264 83.1783 290.264 83.2837C290.264 83.389 290.264 83.403 290.264 83.4627C290.268 85.7778 290.918 88.046 292.141 90.0128C293.365 91.9796 295.113 93.567 297.19 94.5969C297.19 94.7093 297.221 94.8252 297.235 94.9481C297.249 95.071 297.26 95.1377 297.27 95.2325L297.13 95.0955C297.13 95.0955 296.177 94.625 295.28 95.9839C294.383 97.3427 292.695 97.9748 292.695 97.9748C292.695 97.9748 283.086 99.4916 282.717 100.749L278.229 101.008C278.229 101.008 276.643 101.219 276.47 104.52C276.298 107.82 275.468 108.133 275.468 108.133C275.468 108.133 273.622 111.377 273.78 113.049C273.938 114.72 272.373 115.563 272.373 115.563L272.162 118.544C272.162 118.544 270.404 118.284 269.943 120.324C269.482 122.364 268.624 123.309 268.624 123.309C268.624 123.309 265.719 125.717 265.56 127.757L263.767 128.856C263.767 128.856 259.596 127.915 258.646 126.24L258.354 125.967C258.344 125.953 258.336 125.939 258.329 125.924C258.329 125.931 258.329 125.938 258.329 125.945C257.703 125.356 256.381 124.127 256.571 124.408C256.694 124.671 256.724 124.968 256.655 125.25L256.346 124.899L255.516 123.979C255.516 123.979 248.773 117.659 244.813 117.174C244.76 117.073 244.507 116.079 243.832 116.7C243.271 117.212 242.822 117.835 242.514 118.528C242.206 119.221 242.045 119.971 242.042 120.73C242.038 121.488 242.192 122.24 242.493 122.936C242.795 123.632 243.237 124.259 243.793 124.776L250.106 130.665L250.268 130.784L251.626 132.54C251.397 133.087 251.204 133.618 251.046 134.102C251.046 134.102 251.046 134.134 251.028 134.148C250.996 134.253 250.961 134.351 250.929 134.45L250.898 134.555C250.87 134.653 250.838 134.752 250.81 134.843C250.782 134.934 250.778 134.959 250.761 135.015C250.743 135.071 250.761 135.082 250.732 135.113C250.585 135.64 250.486 136.044 250.437 136.269L250.085 136.16L250.437 136.307C250.437 136.325 250.437 136.346 250.437 136.363L250.416 136.472L250.74 136.613C252.59 137.417 261.822 141.458 262.297 142.073C262.824 142.75 266.306 144.741 269.475 143.066C272.644 141.392 273.344 138.825 273.344 138.825C273.344 138.825 276.404 134.587 276.509 133.958C276.615 133.33 278.992 132.596 278.992 132.596C278.992 132.596 279.203 139.618 277.99 142.175C276.776 144.731 274.504 156.1 274.504 156.1C274.653 156.071 274.804 156.061 274.955 156.072C274.87 156.483 274.821 156.729 274.821 156.729C275.006 156.695 275.195 156.695 275.38 156.729C275.211 158.021 274.241 164.018 274.241 164.018C274.241 164.018 273.924 166.739 273.397 167.68C272.869 168.621 272.816 173.544 272.816 173.544L271.972 177.101C272.068 177.311 272.175 177.516 272.292 177.716C272.292 177.716 273.2 179.724 274.722 180.851C274.653 181.41 274.51 181.958 274.297 182.48C273.967 183.274 273.822 184.133 273.875 184.991C273.875 184.991 272.978 189.022 273.084 190.173C273.189 191.325 272.503 194.152 272.503 194.152L271.522 203.232C271.522 203.232 270.889 211.136 271.205 213.285C271.522 215.434 270.991 218.358 270.991 218.358C270.991 218.358 271.624 224.587 271.466 225.269C271.307 225.95 270.516 228.878 270.991 230.504C271.466 232.13 271.205 236.575 271.205 236.575C271.205 236.575 271.522 242.435 271.888 244.321C272.253 246.206 271.782 248.615 271.782 248.615C271.782 248.615 271.431 252.642 271.255 252.642C271.079 252.642 269.725 255.416 272.521 258.141C275.317 260.866 273.576 260.441 273.576 260.441C273.576 260.441 271.36 259.342 271.62 261.593C271.874 263.734 272.222 263.176 272.253 263.116L271.726 264.837L272.078 264.89L271.772 265.241C271.455 265.64 271.102 266.009 270.717 266.343C270.08 266.814 270.013 267.86 270.013 267.86C270.013 267.86 266.109 272.102 262.465 274.247C260.549 275.378 258.896 276.333 258.175 277.123C257.524 277.825 257.629 278.408 258.98 278.854C261.832 279.795 266.844 280.258 270.435 279.065C272.576 278.35 274.501 277.108 276.031 275.451C276.031 275.451 278.303 274.3 280.522 274.718C282.741 275.135 287.173 272.26 287.173 272.26L287.092 271.515L286.856 269.377C286.707 269.197 286.597 268.988 286.534 268.763C286.47 268.538 286.454 268.302 286.487 268.071C286.513 267.438 286.451 266.804 286.301 266.189C286.266 265.982 286.223 265.774 286.185 265.581L286.589 265.508C286.589 265.508 286.065 262.836 287.015 262.312C287.964 261.789 287.697 254.939 287.697 254.939C287.697 254.939 286.487 253.369 285.851 253.109C285.214 252.85 285.798 249.598 285.907 249.18C286.016 248.762 286.856 240.648 286.856 240.648C286.856 240.648 286.54 238.085 286.962 236.986C287.384 235.887 286.455 231.673 286.455 231.673C286.455 231.673 286.139 231.15 286.723 230.521C287.307 229.893 287.074 224.292 287.074 224.292C287.074 224.292 287.025 221.466 287.025 220.732C287.025 219.998 287.658 217.33 288.239 216.441C288.819 215.553 288.45 212.775 288.45 212.775L288.481 212.568C288.481 212.488 288.509 212.389 288.531 212.27L288.576 211.992C288.834 210.45 289.182 208.925 289.621 207.424C290.324 205.226 291.098 201.353 291.098 201.353L296.022 188.572L296.078 188.421C296.078 188.421 298.347 192.61 298.347 196.497C298.347 196.497 298.927 201.157 298.769 202.414C298.61 203.671 299.237 209.552 299.237 209.552C299.237 209.552 299.922 218.032 299.922 218.401C299.922 218.769 300.766 225.311 301.298 226.304C301.829 227.298 300.766 230.335 300.45 230.648C300.133 230.96 300.555 238.657 300.555 238.657C300.555 238.657 299.764 244.728 299.606 245.985C299.448 247.242 298.814 252.059 299.342 253.941C299.87 255.824 299.659 256.087 299.659 256.087C299.659 256.087 301.561 258.025 300.45 258.194C300.046 258.282 299.665 258.455 299.334 258.701C299.002 258.948 298.727 259.263 298.528 259.624C298.328 259.986 298.208 260.385 298.175 260.797C298.143 261.209 298.199 261.622 298.34 262.01C298.997 263.929 299.774 265.806 300.664 267.628C300.664 267.628 300.992 267.555 301.537 267.446V268.067L301.6 271.185C301.6 271.185 301.952 274.17 301.758 274.851C301.604 275.35 301.407 277.695 301.29 278.921C301.252 279.367 301.231 279.665 301.231 279.665C301.231 279.665 301.231 282.439 307.09 281.603C312.95 280.768 314.005 278.464 314.005 278.464C314.005 278.464 314.005 278.355 314.047 278.176C314.135 277.646 314.325 276.522 314.48 275.897C314.691 275.058 312.791 271.291 312.791 271.291C312.791 271.291 312.475 268.727 311.944 268.152C311.726 267.82 311.582 267.445 311.522 267.053C311.472 266.842 311.43 266.621 311.395 266.406C311.526 266.423 311.657 266.447 311.785 266.477C311.785 266.477 311.469 264.644 312.686 264.068C313.903 263.492 313.583 262.291 313.424 261.765C313.266 261.238 313.899 258.31 313.899 258.31C313.814 258.019 313.809 257.71 313.883 257.417C313.957 257.123 314.108 256.854 314.321 256.638C315.063 255.901 315.64 250.774 315.64 250.774L315.746 230.988C315.746 230.988 316.118 227.477 315.696 226.073C315.274 224.668 314.849 221.94 315.429 221.206C316.009 220.472 315.482 217.073 315.482 217.073C315.482 217.073 315.482 209.9 316.277 208.123C317.072 206.346 316.804 195.089 316.804 195.089L317.012 187.716C317.012 187.716 318.739 186.086 318.331 177.593C320.17 177.477 322.245 177.41 322.551 177.663C323.132 178.137 326.881 180.542 329.097 179.025C329.571 178.815 331.734 176.985 331.734 176.985L330.806 161.29C331.386 162.164 331.738 162.747 331.738 162.747C331.738 160.549 337.967 153.428 337.967 153.428C337.967 153.428 343.773 145.946 345.039 145.054C346.306 144.162 348.789 139.453 348.789 139.453C349.155 138.555 349.58 137.681 350.058 136.837C350.66 135.872 348.757 133.358 348.968 132.782ZM335.343 138.274C333.76 138.432 330.419 142.045 330.38 142.838C330.356 143.252 330.004 143.807 329.677 144.243C329.652 143.927 329.624 143.604 329.599 143.277C329.227 138.653 328.822 133.017 329.005 132.469C329.325 131.528 329.216 127.29 329.216 127.29L329.272 127.21C330.327 130.493 333.644 134.365 333.644 134.365C333.644 134.365 334.224 136.04 334.91 136.093C335.596 136.146 335.343 138.274 335.343 138.274Z" fill="url(#paint0_linear)"/>
<path d="M250.701 137.083C250.701 137.083 252.625 127.006 258.818 126.953L263.345 136.251L260.327 138.33C260.327 138.33 253.771 138.537 250.701 137.083Z" fill="#65617D"/>
<path opacity="0.1" d="M263.345 136.251L260.327 138.33C260.327 138.33 255.713 138.477 252.414 137.666C251.825 137.527 251.252 137.331 250.701 137.083C250.701 137.083 250.701 137.027 250.736 136.922C250.736 136.922 250.736 136.897 250.736 136.883C251.02 135.618 251.412 134.38 251.907 133.182C252.101 132.729 252.315 132.262 252.547 131.795C253.455 130.039 254.728 128.347 256.472 127.501C257.117 127.185 257.82 127.002 258.537 126.964H258.72H258.811L258.91 127.171L260.44 130.31L263.345 136.251Z" fill="black"/>
<path d="M314.75 178.119C314.75 178.119 321.257 177.498 321.827 177.965C322.396 178.432 326.093 180.819 328.281 179.313C330.468 177.807 329.009 172.561 329.009 172.354C329.009 172.147 328.801 164.717 328.801 164.717L324.897 159.471L320.008 150.279L310.02 149.288L310.28 163.888L310.227 171.367L314.75 178.119Z" fill="#65617D"/>
<path opacity="0.1" d="M314.75 178.119C314.75 178.119 321.257 177.498 321.827 177.965C322.396 178.432 326.093 180.819 328.281 179.313C330.468 177.807 329.009 172.561 329.009 172.354C329.009 172.147 328.801 164.717 328.801 164.717L324.897 159.471L320.008 150.279L310.02 149.288L310.28 163.888L310.227 171.367L314.75 178.119Z" fill="black"/>
<path d="M257.517 126.686C257.517 126.686 256.996 133.024 253.043 133.126C253.043 133.126 251.921 132.452 250.412 131.328C246.938 128.733 241.426 123.744 242.949 119.102C245.133 112.455 255.748 124.72 255.748 124.72L256.56 125.633L257.517 126.686Z" fill="#FFB9B9"/>
<path opacity="0.1" d="M257.517 126.686C257.517 126.686 256.996 133.024 253.043 133.126C253.043 133.126 251.921 132.452 250.412 131.328L250.078 130.896C250.749 131.246 251.489 131.444 252.245 131.479C252.839 131.503 253.427 131.345 253.93 131.027C254.432 130.709 254.826 130.246 255.059 129.699C255.474 128.884 255.84 128.044 256.152 127.185C256.345 126.684 256.482 126.163 256.56 125.633L257.517 126.686Z" fill="black"/>
<path d="M255.801 138.175L254.911 137.031L251.914 133.168L250.388 131.198C251.058 131.549 251.798 131.749 252.554 131.781C253.55 131.806 254.665 131.43 255.368 130.005C255.783 129.188 256.148 128.347 256.462 127.487C256.954 126.082 256.947 125.38 256.771 125.124C256.595 124.868 257.876 126.065 258.491 126.648L258.512 126.669L258.801 126.939L258.906 127.15L260.415 130.159C260.415 130.159 260.415 130.201 260.415 130.285C260.563 131.251 261.073 137.315 255.801 138.175Z" fill="#E7EFFD"/>
<path d="M286.969 271.881C286.969 271.881 282.597 274.739 280.413 274.338C278.229 273.938 275.989 275.069 275.989 275.069C274.483 276.711 272.584 277.944 270.47 278.654C266.953 279.848 261.994 279.377 259.184 278.443C257.855 278.001 257.746 277.432 258.386 276.726C259.089 275.94 260.728 274.995 262.606 273.871C266.197 271.744 270.045 267.551 270.045 267.551C270.045 267.551 270.098 266.498 270.724 266.048C271.109 265.717 271.462 265.35 271.779 264.953C272.338 264.293 272.862 263.604 272.862 263.604L285.72 263.977C285.72 263.977 285.938 264.9 286.111 265.845C286.258 266.457 286.318 267.087 286.29 267.716C286.257 267.945 286.271 268.177 286.332 268.4C286.392 268.623 286.498 268.831 286.642 269.012L286.874 271.119L286.969 271.881Z" fill="#65617D"/>
<path d="M313.868 275.466C313.713 276.087 313.516 277.2 313.442 277.723L313.396 278.011C313.396 278.011 312.341 280.297 306.584 281.129C300.826 281.962 300.809 279.205 300.809 279.205C300.809 279.205 300.83 278.91 300.865 278.464C300.967 277.249 301.174 274.921 301.329 274.426C301.533 273.752 301.171 270.789 301.171 270.789L301.111 267.695L301.065 265.546L310.642 264.556C310.701 265.271 310.805 265.982 310.952 266.684C311.011 267.074 311.153 267.447 311.37 267.776C311.891 268.348 312.2 270.894 312.2 270.894C312.2 270.894 314.075 274.633 313.868 275.466Z" fill="#65617D"/>
<path opacity="0.1" d="M285.72 263.977C285.72 263.977 285.938 264.9 286.111 265.845C284.722 266.101 278.651 267.151 277.135 266.417C275.415 265.585 271.722 265.118 271.722 265.118L271.782 264.907C272.341 264.247 272.865 263.559 272.865 263.559L285.72 263.977Z" fill="black"/>
<path opacity="0.1" d="M310.952 266.684C308.525 266.273 303.214 267.267 301.104 267.695L301.058 265.546L310.635 264.556C310.697 265.271 310.802 265.982 310.952 266.684Z" fill="black"/>
<path d="M316.351 187.937L316.143 195.261C316.143 195.261 316.403 206.431 315.623 208.197C314.842 209.963 314.842 217.08 314.842 217.08C314.842 217.08 315.362 220.454 314.789 221.181C314.216 221.908 314.634 224.608 315.049 226.013C315.464 227.417 315.102 230.897 315.102 230.897L314.997 250.532C314.997 250.532 314.427 255.62 313.695 256.35C313.485 256.566 313.336 256.833 313.264 257.125C313.191 257.416 313.196 257.722 313.28 258.011C313.28 258.011 312.658 260.918 312.812 261.441C312.967 261.965 313.28 263.155 312.084 263.724C310.889 264.293 311.198 266.115 311.198 266.115C308.339 265.437 300.221 267.26 300.221 267.26C299.344 265.454 298.58 263.597 297.932 261.698C297.792 261.313 297.736 260.904 297.767 260.496C297.799 260.088 297.917 259.692 298.114 259.333C298.311 258.974 298.582 258.662 298.91 258.416C299.238 258.171 299.614 257.998 300.014 257.909C301.104 257.751 299.233 255.83 299.233 255.83C299.233 255.83 299.441 255.571 298.92 253.703C298.399 251.835 299.022 247.031 299.18 245.802C299.339 244.573 300.116 238.53 300.116 238.53C300.116 238.53 299.701 230.897 300.014 230.584C300.327 230.272 301.364 227.259 300.847 226.273C300.33 225.286 299.49 218.794 299.49 218.428C299.49 218.063 298.818 209.65 298.818 209.65C298.818 209.65 298.192 203.78 298.35 202.533C298.508 201.287 297.932 196.666 297.932 196.666C297.932 192.803 295.695 188.664 295.695 188.664L295.639 188.815L290.817 201.497C290.817 201.497 290.036 205.339 289.361 207.519C288.934 209.002 288.594 210.508 288.344 212.031L288.298 212.308C288.298 212.424 288.263 212.523 288.253 212.6L288.221 212.81C288.221 212.81 288.573 215.563 288.01 216.448C287.447 217.333 286.814 219.98 286.814 220.707C286.814 221.434 286.867 224.24 286.867 224.24C286.867 224.24 287.074 229.798 286.515 230.423C285.956 231.048 286.251 231.564 286.251 231.564C286.251 231.564 287.187 235.778 286.772 236.863C286.357 237.948 286.67 240.497 286.67 240.497C286.67 240.497 285.836 248.552 285.734 248.966C285.632 249.38 285.056 252.604 285.682 252.863C286.308 253.123 287.5 254.679 287.5 254.679C287.5 254.679 287.764 261.487 286.825 262.003C285.886 262.519 286.406 265.163 286.406 265.163C286.406 265.163 278.866 266.617 277.149 265.785C275.433 264.953 271.736 264.486 271.736 264.486L272.253 262.779C272.222 262.839 271.877 263.394 271.631 261.266C271.374 259.033 273.558 260.121 273.558 260.121C273.558 260.121 275.275 260.539 272.503 257.839C269.732 255.139 271.096 252.382 271.255 252.382C271.413 252.382 271.779 248.387 271.779 248.387C271.779 248.387 272.246 245.995 271.881 244.124C271.515 242.252 271.205 236.434 271.205 236.434C271.205 236.434 271.466 232.021 270.998 230.412C270.53 228.804 271.307 225.89 271.466 225.216C271.624 224.542 270.98 218.376 270.98 218.376C270.98 218.376 271.501 215.468 271.188 213.341C270.875 211.213 271.501 203.365 271.501 203.365L272.436 194.327C272.436 194.327 273.112 191.518 273.01 190.377C272.908 189.236 273.794 185.237 273.794 185.237C273.741 184.385 273.883 183.532 274.209 182.744C274.73 181.69 274.937 178.277 274.937 178.277L279.935 166.848L282.397 156.771L315.433 156.458C315.433 156.458 315.556 157.333 315.756 158.916C315.957 160.5 316.238 162.852 316.551 165.756C316.84 168.393 317.156 171.493 317.462 174.945C318.461 185.963 316.351 187.937 316.351 187.937Z" fill="#3F3D56"/>
<path d="M313.294 96.9811L305.592 105.19C305.592 105.19 295.709 101.24 296.75 99.892C297.151 99.3688 297.102 97.7185 296.855 95.8996C296.504 93.0204 295.709 89.7093 295.709 89.7093C295.709 89.7093 312.981 86.9003 311.536 89.8111C311.005 90.8645 311.096 92.1145 311.427 93.2627C311.845 94.5943 312.476 95.8498 313.294 96.9811Z" fill="#FBBEBE"/>
<path opacity="0.1" d="M311.525 89.818C310.994 90.8714 310.741 90.9838 311.071 92.1319C308.814 94.5442 305.94 97.1917 302.367 97.1917C300.454 97.1946 298.568 96.7534 296.855 95.903C296.504 93.0238 295.709 89.7127 295.709 89.7127C295.709 89.7127 312.981 86.9037 311.525 89.818Z" fill="black"/>
<path d="M314.754 84.5125C314.699 87.7558 313.37 90.8478 311.053 93.1221C308.737 95.3963 305.618 96.6708 302.368 96.6708C299.119 96.6708 296 95.3963 293.684 93.1221C291.367 90.8478 290.038 87.7558 289.983 84.5125C289.983 84.4528 289.983 84.3932 289.983 84.337C290.006 81.0581 291.333 77.9227 293.672 75.6206C294.83 74.4807 296.202 73.5797 297.709 72.9691C299.216 72.3584 300.828 72.0501 302.455 72.0616C304.081 72.0731 305.689 72.4043 307.187 73.0363C308.685 73.6682 310.044 74.5886 311.185 75.7447C312.327 76.9009 313.23 78.2703 313.841 79.7747C314.453 81.2791 314.762 82.889 314.75 84.5125H314.754Z" fill="#FFB9B9"/>
<path opacity="0.1" d="M316.544 166.076C314.905 166.076 309.443 166.135 303.337 166.23H303.264L301.248 166.265H301.185C293.947 166.381 286.811 164.97 283.951 165.237C277.867 165.805 286.139 159.619 286.139 159.619C290.675 160.719 295.342 161.192 300.007 161.023L301.765 160.932C307.294 160.619 312.855 160.1 315.76 159.229C315.953 160.837 316.231 163.172 316.544 166.076Z" fill="black"/>
<path d="M316.544 165.763C314.905 165.763 309.443 165.823 303.337 165.918H303.264L301.248 165.953H301.185C293.947 166.069 286.811 164.657 283.951 164.924C277.867 165.496 286.139 159.306 286.139 159.306C290.675 160.407 295.342 160.879 300.007 160.71L301.765 160.619C307.294 160.307 312.855 159.787 315.76 158.92C315.953 160.528 316.231 162.852 316.544 165.763Z" fill="#5F5D7E"/>
<path opacity="0.1" d="M299.04 100.408L289.466 104.878L282.08 161.911C282.08 161.911 286.448 159.938 288.949 161.184C291.45 162.431 299.149 161.29 299.149 161.29C299.149 161.29 304.776 160.977 305.602 161.602C306.429 162.227 316.21 158.99 316.21 158.99C316.21 158.99 317.968 155.043 316.625 154.425C315.281 153.807 317.054 147.68 317.054 147.68L316.21 106.539L314.543 101.24L310.069 98.54L305.497 102.174L303.313 102.487L299.04 100.408Z" fill="black"/>
<path d="M299.04 99.7865L289.466 104.253L282.08 161.29C282.08 161.29 286.448 159.316 288.949 160.563C291.45 161.809 299.149 160.665 299.149 160.665C299.149 160.665 304.776 160.356 305.602 160.977C306.429 161.599 316.217 158.379 316.217 158.379C316.217 158.379 317.975 154.432 316.632 153.814C315.288 153.196 317.054 147.052 317.054 147.052L316.21 105.914L314.543 100.619L310.069 97.915L305.497 101.553L303.313 101.865L299.04 99.7865Z" fill="#E7EFFD"/>
<path opacity="0.1" d="M298.881 102.434C298.881 102.434 301.639 105.707 301.589 106.384C301.54 107.062 301.431 108.67 301.431 108.67L299.349 112.884C299.349 112.884 298.206 118.129 298.206 119.221C298.206 120.313 296.384 129.755 296.384 129.755L294.193 144.302L291.436 163.368L294.249 168.196L297.576 165.387L302.001 131.412L302.936 124.713C302.936 124.713 303.925 112.662 303.925 111.416C303.925 110.169 303.355 106.897 303.355 106.897C303.355 106.897 304.03 103.779 306.84 103.034C309.651 102.29 306.633 102.876 306.633 102.876L305.019 101.581L303.612 102.15C303.612 102.15 299.715 100.98 298.881 102.434Z" fill="black"/>
<path d="M298.568 102.125C298.568 102.125 301.329 105.398 301.276 106.072C301.224 106.746 301.118 108.358 301.118 108.358L299.04 112.571C299.04 112.571 297.893 117.817 297.893 118.909C297.893 120.001 296.071 129.443 296.071 129.443L293.887 143.986L291.13 163.053L293.943 167.884L297.274 165.075L301.695 131.104L302.634 124.408C302.634 124.408 303.622 112.357 303.622 111.11C303.622 109.864 303.053 106.591 303.053 106.591C303.053 106.591 303.728 103.473 306.538 102.747C309.348 102.02 306.33 102.592 306.33 102.592L304.716 101.293L303.309 101.865C303.309 101.865 299.402 100.668 298.568 102.125Z" fill="#F07178"/>
<path opacity="0.1" d="M296.75 96.6685C296.75 96.6685 296.331 96.981 296.229 99.0596C296.127 101.138 294.668 105.812 294.668 105.812C294.668 105.812 300.081 102.072 302.785 102.487L296.75 96.6685Z" fill="black"/>
<path d="M296.75 96.0469C296.75 96.0469 296.331 96.3559 296.229 98.4345C296.127 100.513 294.668 105.187 294.668 105.187C294.668 105.187 300.081 101.447 302.785 101.865L296.75 96.0469Z" fill="#E7EFFD"/>
<path opacity="0.1" d="M311.525 95.0076L302.986 102.487C302.986 102.487 310.168 106.746 311.103 107.785C312.039 108.824 312.974 97.6024 312.974 97.6024L311.525 95.0076Z" fill="black"/>
<path d="M311.838 94.3826L303.306 101.865C303.306 101.865 310.484 106.124 311.427 107.164C312.369 108.203 313.298 96.9809 313.298 96.9809L311.838 94.3826Z" fill="#E7EFFD"/>
<path opacity="0.1" d="M297.059 96.6685C297.059 96.6685 296.124 96.2015 295.241 97.5534C294.591 98.4346 293.708 99.1178 292.691 99.5267C292.691 99.5267 283.22 101.033 282.843 102.28L278.419 102.539C278.419 102.539 276.857 102.747 276.703 106.019C276.548 109.292 275.714 109.604 275.714 109.604C275.714 109.604 273.892 112.824 274.051 114.485C274.209 116.146 272.644 116.981 272.644 116.981L279.147 133.863C279.147 133.863 279.358 140.823 278.159 143.368C276.959 145.914 274.726 157.185 274.726 157.185C274.726 157.185 275.662 156.978 275.609 157.6C275.556 158.221 274.497 165.029 274.497 165.029C274.497 165.029 274.184 167.729 273.664 168.667C273.143 169.605 273.091 174.482 273.091 174.482L272.261 178.014C272.261 178.014 274.237 182.431 277.255 181.806C280.272 181.181 285.734 169.394 285.734 169.394L289.223 156.666L291.928 144.095L292.709 135.577L293.957 116.721L295.779 104.253C295.779 104.253 297.791 97.5429 297.059 96.6685Z" fill="black"/>
<path d="M296.75 96.047C296.75 96.047 295.811 95.58 294.928 96.9283C294.279 97.8107 293.396 98.4942 292.378 98.9016C292.378 98.9016 282.91 100.408 282.53 101.654L278.106 101.914C278.106 101.914 276.548 102.125 276.39 105.397C276.231 108.67 275.401 108.979 275.401 108.979C275.401 108.979 273.579 112.202 273.738 113.863C273.896 115.524 272.331 116.356 272.331 116.356L278.837 133.238C278.837 133.238 279.045 140.198 277.849 142.743C276.653 145.289 274.413 156.564 274.413 156.564C274.413 156.564 275.349 156.353 275.299 156.978C275.25 157.603 274.153 164.404 274.153 164.404C274.153 164.404 273.84 167.108 273.319 168.042C272.799 168.976 272.749 173.86 272.749 173.86L271.916 177.392C271.916 177.392 273.892 181.806 276.91 181.185C279.928 180.563 285.4 168.769 285.4 168.769L288.886 156.044L291.59 143.474L292.371 134.952L293.62 116.096L295.442 103.631C295.442 103.631 297.478 96.9283 296.75 96.047Z" fill="#65617D"/>
<path opacity="0.1" d="M263.345 136.251L260.327 138.33C260.327 138.33 255.713 138.477 252.414 137.666L250.736 136.922L250.384 136.774L250.736 136.883C252.477 137.399 253.838 137.389 254.904 137.03C259.173 135.594 258.702 128.554 258.537 126.964C258.537 126.802 258.509 126.7 258.502 126.662C258.501 126.655 258.501 126.648 258.502 126.641L258.526 126.683C258.585 126.779 258.651 126.87 258.723 126.957C258.783 127.023 258.846 127.094 258.913 127.16L260.422 130.169C260.422 130.169 260.422 130.212 260.422 130.296L263.345 136.251Z" fill="black"/>
<path d="M273.794 115.942L272.334 116.356L272.127 119.316C272.127 119.316 270.411 119.056 269.943 121.072C269.475 123.087 268.641 124.035 268.641 124.035C268.641 124.035 265.779 126.423 265.624 128.449L263.865 129.541C263.865 129.541 259.754 128.604 258.818 126.943C258.818 126.943 260.693 140.345 250.701 137.073C250.701 137.073 261.889 141.953 262.409 142.631C262.93 143.309 266.362 145.278 269.486 143.618C272.609 141.957 273.284 139.404 273.284 139.404C273.284 139.404 276.302 135.191 276.404 134.573C276.506 133.955 278.866 133.221 278.866 133.221L283.339 122.417L273.794 115.942Z" fill="#65617D"/>
<path opacity="0.1" d="M310.329 101.24L311.838 94.3826C311.838 94.3826 312.514 96.6157 313.192 97.1354L315.429 98.8524C315.429 98.8524 317.666 99.8882 318.447 99.8882C319.228 99.8882 323.441 100.98 323.962 101.553C324.482 102.125 326.564 101.707 326.564 101.707C326.564 101.707 328.281 102.279 329.789 102.641C331.298 103.003 332.026 105.499 331.713 106.503C331.586 106.995 331.586 107.51 331.714 108.002C331.841 108.493 332.091 108.944 332.441 109.312C333.067 109.937 333.38 111.963 333.38 111.963C334.142 112.215 334.774 112.756 335.139 113.47C335.659 114.611 335.491 117.104 335.491 117.104L327.753 128.013C327.753 128.013 327.855 132.227 327.546 133.157C327.236 134.088 328.636 149.987 328.636 149.987L330.25 177.308C330.25 177.308 328.115 179.127 327.648 179.334C327.18 179.541 326.712 169.675 326.712 169.309C326.712 168.944 314.694 151.335 314.694 151.335C314.694 151.335 313.08 148.74 313.08 148.175C313.08 147.61 311.571 142.357 311.571 142.357L309.281 132.227L310.329 101.24Z" fill="black"/>
<path d="M336.155 116.504C336.155 116.855 336.155 117.1 336.155 117.1L328.418 127.985C328.418 127.985 328.523 132.199 328.214 133.126C328.031 133.67 328.428 139.26 328.798 143.853C329.058 147.164 329.304 149.955 329.304 149.955L329.99 161.542L330.915 177.273C330.915 177.273 328.784 179.092 328.316 179.299C327.848 179.506 327.38 169.639 327.38 169.274C327.38 168.909 315.359 151.304 315.359 151.304C315.359 151.304 313.744 148.702 313.744 148.143C313.744 147.585 312.236 142.325 312.236 142.325L309.95 132.195L310.987 101.237L311.838 94.3826C311.838 94.3826 313.14 96.6192 313.815 97.1354L316.052 98.8489C316.052 98.8489 318.289 99.9023 319.069 99.9023C319.85 99.9023 324.067 100.991 324.588 101.563C325.108 102.135 327.187 101.718 327.187 101.718C327.187 101.718 328.903 102.29 330.412 102.652C331.921 103.013 332.652 105.51 332.339 106.514C332.212 107.005 332.212 107.521 332.339 108.013C332.466 108.504 332.717 108.955 333.067 109.323C333.69 109.944 334.003 111.97 334.003 111.97C334.765 112.224 335.396 112.766 335.761 113.48C336.134 114.235 336.169 115.678 336.155 116.504Z" fill="#65617D"/>
<path opacity="0.1" d="M272.556 254.896C272.813 254.896 283.74 255.311 283.533 257.077C283.325 258.843 272.556 254.896 272.556 254.896Z" fill="black"/>
<path opacity="0.1" d="M275 257.856C275 257.856 282.337 259.05 280.41 260.142C278.482 261.234 275 257.856 275 257.856Z" fill="black"/>
<path opacity="0.1" d="M302.282 253.752C302.282 253.752 314.458 254.805 312.637 256.143C310.815 257.481 306.496 257.699 306.306 257.751C306.116 257.804 302.282 253.752 302.282 253.752Z" fill="black"/>
<path opacity="0.1" d="M300.809 259.103C300.809 259.103 307.572 260.244 307.779 261.561C307.987 262.878 300.809 259.103 300.809 259.103Z" fill="black"/>
<path opacity="0.1" d="M304.554 227.832C304.554 227.832 310.744 229.285 311.11 230.29L304.554 227.832Z" fill="black"/>
<path opacity="0.1" d="M280.67 232.298C280.67 232.298 277.445 233.232 280.568 235.107C283.691 236.982 280.67 232.298 280.67 232.298Z" fill="black"/>
<path opacity="0.1" d="M294.981 182.378C295.333 182.378 301.016 180.51 302.993 181.325C304.407 181.856 305.903 182.139 307.414 182.164L294.981 182.378Z" fill="black"/>
<path opacity="0.1" d="M295.709 188.298L295.653 188.814L290.817 201.497C290.817 201.497 290.036 205.338 289.361 207.519C288.934 209.002 288.594 210.508 288.344 212.031L292.638 185.444L295.709 188.298Z" fill="black"/>
<path d="M303.264 165.918L301.248 165.953H301.185L300.003 160.717L301.762 160.623L303.264 165.918Z" fill="#3F3D56"/>
<path d="M327.813 159.576L326.515 160.63L322.193 164.187C322.193 164.187 310.484 170.423 307.259 164.499C304.417 159.281 317.691 155.556 320.888 154.745C321.32 154.636 321.566 154.58 321.566 154.58L327.813 159.576Z" fill="#FFB9B9"/>
<path opacity="0.1" d="M277.81 108.512C277.81 108.512 280.1 109.565 280.624 111.005C281.148 112.445 277.81 108.512 277.81 108.512Z" fill="black"/>
<path opacity="0.1" d="M270.734 124.095C270.734 124.095 267.403 128.147 268.758 129.713C270.112 131.279 270.734 124.095 270.734 124.095Z" fill="black"/>
<path opacity="0.1" d="M330.257 110.798C330.257 110.798 327.134 111.11 327.032 113.811L330.257 110.798Z" fill="black"/>
<path opacity="0.1" d="M301.329 153.393C301.639 153.08 308.821 142.484 310.474 143.421L301.329 153.393Z" fill="black"/>
<path opacity="0.1" d="M314.754 84.5125C314.757 86.549 314.253 88.5544 313.287 90.3482L313.196 90.3307C312.412 90.1657 312.004 89.2527 311.402 88.6839C311.033 88.3329 310.563 88.1062 310.059 88.0357C309.554 87.9651 309.04 88.0543 308.588 88.2906C308.134 88.5634 307.764 88.9571 307.52 89.4278C307.277 89.8985 307.169 90.4275 307.21 90.9557C306.812 89.2913 306.939 87.5252 306.552 85.8573C306.165 84.1895 305.001 82.5041 303.404 82.476C302.701 82.476 301.917 82.7253 301.417 82.2126C301.118 81.9037 301.065 81.4156 300.833 81.0364C299.694 79.1965 296.222 80.127 294.805 81.0715C293.388 82.016 291.745 83.5294 289.983 84.337C290.006 81.0581 291.333 77.9227 293.672 75.6206C294.83 74.4807 296.202 73.5797 297.709 72.9691C299.216 72.3584 300.828 72.0501 302.455 72.0616C304.081 72.0731 305.689 72.4043 307.187 73.0363C308.685 73.6682 310.044 74.5886 311.185 75.7447C312.327 76.9009 313.23 78.2703 313.841 79.7747C314.453 81.2791 314.762 82.889 314.75 84.5125H314.754Z" fill="black"/>
<path d="M300.837 80.7274C301.062 81.1031 301.122 81.5912 301.421 81.9002C301.917 82.4163 302.722 82.1495 303.408 82.1635C305.005 82.1916 306.169 83.877 306.556 85.5449C306.942 87.2127 306.816 88.9789 307.213 90.6432C307.172 90.1146 307.28 89.585 307.524 89.1142C307.768 88.6433 308.139 88.2499 308.595 87.9782C309.047 87.7418 309.561 87.6526 310.066 87.7232C310.57 87.7937 311.04 88.0204 311.409 88.3714C312.011 88.9403 312.419 89.8532 313.203 90.0182C313.987 90.1832 314.743 89.4318 315.028 88.6137C315.313 87.7956 315.292 86.8827 315.478 86.0259C315.83 84.4072 316.885 83.0765 317.476 81.535C318.173 79.6607 318.154 77.5958 317.423 75.7344C317.033 74.7583 316.453 73.8805 316.055 72.9078C315.457 71.4261 315.303 69.7477 314.571 68.3432C313.347 65.9801 310.463 64.8003 308.089 65.6887C306.96 66.11 305.979 66.9317 304.829 67.3004C303.292 67.7954 301.646 67.4232 300.056 67.202C298.466 66.9808 296.704 66.9598 295.424 68.0026C293.95 69.207 293.549 71.4682 292.164 72.7885C291.583 73.3432 290.862 73.6979 290.25 74.193C289.638 74.688 289.107 75.4675 289.195 76.2997C289.287 77.3742 290.342 78.3503 289.951 79.3475C289.811 79.6367 289.615 79.8956 289.375 80.1094C288.216 81.322 287.354 82.7857 286.856 84.3862C289.638 85.2569 292.653 82.1916 294.833 80.7415C296.229 79.818 299.697 78.884 300.837 80.7274Z" fill="#ECCD80"/>
<path opacity="0.1" d="M327.813 159.576L326.515 160.63C325.372 158.734 320.684 154.941 320.684 154.941L320.888 154.745C321.32 154.636 321.566 154.58 321.566 154.58L327.813 159.576Z" fill="black"/>
<path d="M329.061 157.652C329.061 157.652 328.594 158.811 328.115 159.808C327.637 160.805 327.109 161.718 327.085 160.977C327.032 159.524 320.997 154.64 320.997 154.64L321.816 153.846L322.762 152.926L329.061 157.652Z" fill="#E7EFFD"/>
<path opacity="0.1" d="M329.269 149.962L329.955 161.55C328.337 159.039 323.898 152.606 321.046 152.814L327.957 144.875C328.245 144.555 328.51 144.216 328.752 143.86C329.012 147.171 329.269 149.962 329.269 149.962Z" fill="black"/>
<path opacity="0.1" d="M329.061 157.652C329.061 157.652 328.594 158.811 328.115 159.808C326.3 157.326 323.807 154.394 321.816 153.839L322.762 152.919L329.061 157.652Z" fill="black"/>
<path d="M334.263 115.629L336.138 117.083C336.138 117.083 339.257 117.136 339.57 119.734C339.883 122.332 342.736 123.526 342.736 123.526C342.736 123.526 344.867 125.654 344.867 126.641C344.867 127.627 346.481 129.394 346.481 129.552C346.481 129.71 348.043 132.877 347.832 133.446C347.621 134.014 349.499 136.511 348.926 137.445C348.456 138.284 348.039 139.152 347.677 140.043C347.677 140.043 345.233 144.72 343.984 145.602C342.736 146.483 337.01 153.913 337.01 153.913C337.01 153.913 330.873 160.977 330.873 163.158C330.873 163.158 324.894 153.186 321.348 153.446L328.27 145.496C328.27 145.496 329.466 144.201 329.519 143.421C329.571 142.642 332.849 139.057 334.411 138.902C334.411 138.902 334.668 136.771 333.992 136.718C333.317 136.665 332.744 135.005 332.744 135.005C332.744 135.005 328.172 129.604 328.112 126.174C328.052 122.743 334.263 115.629 334.263 115.629Z" fill="#65617D"/>
<path opacity="0.1" d="M337.02 120.563C337.02 120.563 332.652 123.786 333.588 124.822C334.523 125.858 337.02 120.563 337.02 120.563Z" fill="black"/>
<path opacity="0.1" d="M337.228 133.863C337.228 133.863 345.345 131.265 346.179 133.863H337.228Z" fill="black"/>
<path opacity="0.1" d="M286.969 271.88C286.969 271.88 282.597 274.739 280.413 274.338C278.229 273.938 275.989 275.069 275.989 275.069C274.483 276.71 272.584 277.944 270.47 278.654C266.953 279.847 261.994 279.377 259.184 278.443C257.855 278.001 257.746 277.432 258.386 276.726C261.442 277.333 268.269 278.545 270.108 277.663C272.5 276.519 275.936 274.026 275.936 274.026C275.936 274.026 280.413 273.404 281.036 273.404C281.479 273.404 284.936 271.979 286.888 271.164L286.969 271.88Z" fill="black"/>
<path opacity="0.1" d="M313.442 277.723L313.396 278.011C313.396 278.011 312.341 280.297 306.584 281.129C300.826 281.961 300.809 279.205 300.809 279.205C300.809 279.205 300.83 278.91 300.865 278.464C302.694 279.156 306.682 279.928 313.442 277.723Z" fill="black"/>
<path opacity="0.1" d="M279.97 119.941C279.97 119.941 279.97 131.785 278.954 132.954C277.937 134.123 279.97 119.941 279.97 119.941Z" fill="black"/>
<path opacity="0.1" d="M326.874 123.758L328.383 127.992C328.383 127.992 328.984 123.835 326.874 123.758Z" fill="black"/>
<g opacity="0.1">
<path opacity="0.1" d="M290.085 78.3538C290.465 77.3777 289.466 76.4226 289.336 75.3762C289.204 75.6714 289.147 75.9947 289.171 76.3172C289.237 77.1038 289.818 77.8376 289.973 78.568C290.016 78.4999 290.054 78.4283 290.085 78.3538Z" fill="black"/>
<path opacity="0.1" d="M307.354 89.5407C306.981 87.9044 307.09 86.1699 306.71 84.5301C306.33 82.8904 305.159 81.1769 303.566 81.1488C302.863 81.1488 302.075 81.4016 301.579 80.8889C301.276 80.58 301.227 80.0884 300.992 79.7127C299.852 77.8693 296.384 78.8033 294.963 79.7478C292.853 81.1523 289.913 84.1123 287.183 83.4451C287.053 83.7576 286.934 84.0772 286.832 84.4037C289.614 85.2745 292.628 82.2092 294.809 80.759C296.215 79.818 299.697 78.884 300.837 80.7274C301.062 81.1031 301.122 81.5912 301.421 81.9002C301.917 82.4163 302.722 82.1495 303.408 82.1635C305.005 82.1916 306.169 83.877 306.556 85.5449C306.942 87.2127 306.816 88.9789 307.213 90.6432C307.188 90.2701 307.235 89.8955 307.354 89.5407Z" fill="black"/>
<path opacity="0.1" d="M315.176 87.5953C314.895 88.4169 314.152 89.1753 313.351 88.9998C312.549 88.8242 312.158 87.9218 311.56 87.3495C311.189 87.0023 310.719 86.7784 310.216 86.7086C309.712 86.6388 309.199 86.7266 308.747 86.9597C308.313 87.2179 307.956 87.587 307.713 88.029C307.47 88.471 307.35 88.9698 307.365 89.4738C307.575 88.8395 308.012 88.3047 308.592 87.971C309.043 87.7346 309.557 87.6455 310.062 87.716C310.567 87.7865 311.037 88.0132 311.406 88.3642C312.007 88.9331 312.415 89.846 313.199 90.011C313.984 90.176 314.74 89.4246 315.025 88.6065C315.173 88.1207 315.268 87.6204 315.31 87.1142C315.275 87.2773 315.231 87.4379 315.176 87.5953Z" fill="black"/>
<path opacity="0.1" d="M317.624 80.5166C317.04 82.0581 315.978 83.3853 315.626 85.0075C315.556 85.3341 315.514 85.6677 315.475 86.0048C315.827 84.3896 316.882 83.0658 317.469 81.5279C317.728 80.836 317.89 80.1117 317.951 79.3755C317.871 79.7636 317.761 80.145 317.624 80.5166Z" fill="black"/>
</g>
<path d="M242.432 118.129C242.502 118.129 242.559 118.073 242.559 118.003C242.559 117.933 242.502 117.876 242.432 117.876C242.362 117.876 242.306 117.933 242.306 118.003C242.306 118.073 242.362 118.129 242.432 118.129Z" fill="#E6E8EC"/>
<path opacity="0.1" d="M287.359 281.284C304.13 281.284 317.726 279.899 317.726 278.19C317.726 276.482 304.13 275.097 287.359 275.097C270.588 275.097 256.993 276.482 256.993 278.19C256.993 279.899 270.588 281.284 287.359 281.284Z" fill="#F07178"/>
<path d="M175.696 75.2778L83.7205 134.85L143.743 242.927C144.023 243.432 144.406 243.874 144.866 244.224C145.326 244.575 145.854 244.826 146.416 244.963L200.801 258.208C201.732 258.433 202.713 258.332 203.58 257.922C204.447 257.513 205.146 256.819 205.563 255.957L232.539 200.005L262.103 160.549L191.945 77.6831C189.992 75.3782 187.265 73.8626 184.275 73.4199C181.284 72.9772 178.234 73.6377 175.696 75.2778Z" fill="#DCDFED"/>
<path opacity="0.1" d="M263.039 161.016L262.779 161.367L245.46 184.482L245.147 184.899L233.474 200.479L210.402 248.341L209.755 249.679L206.498 256.431C206.082 257.294 205.381 257.989 204.513 258.399C203.645 258.809 202.662 258.908 201.729 258.682L147.344 245.43C146.782 245.294 146.254 245.042 145.794 244.692C145.334 244.341 144.952 243.899 144.672 243.394L139.442 233.994L138.503 232.301L100.754 164.302L100.43 163.723L84.6526 135.317L86.5588 134.081L101.01 124.723L101.345 124.506L131.778 104.793L133.698 103.55L176.624 75.7448C179.162 74.1016 182.214 73.4389 185.206 73.881C188.199 74.3232 190.927 75.8398 192.88 78.1465L224.886 115.963L226.292 117.648L249.523 145.085L249.649 145.236L261.329 159.028L262.8 160.766L263.039 161.016Z" fill="black"/>
<path opacity="0.1" d="M248.749 144.769L245.914 164.432L245.06 170.366L244.571 183.007L244.532 183.993L241.989 250.04C241.965 250.653 241.806 251.253 241.523 251.798C241.241 252.342 240.843 252.819 240.356 253.193C239.869 253.567 239.306 253.83 238.707 253.963C238.107 254.096 237.485 254.095 236.886 253.962L209.474 247.853L209.178 247.786L138.875 232.122L137.585 231.834L98.9354 223.218L99.8217 163.835L99.8499 161.851L100.117 143.877L100.413 124.039L130.846 104.326L132.766 103.083C160.994 105.973 198.536 111.532 223.968 115.496L225.374 117.181L248.587 144.618L248.749 144.769Z" fill="black"/>
<path d="M251.96 121.455L248.622 144.629L245.562 165.851L244.708 171.771L244.219 184.411L241.637 251.445C241.613 252.058 241.454 252.658 241.172 253.202C240.89 253.747 240.491 254.223 240.004 254.597C239.518 254.971 238.955 255.234 238.355 255.367C237.755 255.5 237.134 255.5 236.534 255.367L208.827 249.191L138.524 233.527L98.5837 224.622L99.4981 163.256L99.7654 145.282L100.078 124.257L100.398 102.631C107.004 102.318 117.871 103.024 130.846 104.327C159.897 107.237 199.499 113.126 225.392 117.181C241.247 119.664 251.96 121.455 251.96 121.455Z" fill="#F07178"/>
<path opacity="0.1" d="M260.429 158.562L245.562 165.84L169.689 202.99L99.7655 145.296L85.6303 133.614L83.7241 134.85L99.5017 163.256L98.5872 224.622L138.527 233.527L143.747 242.927C144.027 243.432 144.409 243.874 144.869 244.225C145.329 244.575 145.857 244.827 146.42 244.963L200.804 258.208C201.735 258.432 202.716 258.331 203.581 257.921C204.447 257.512 205.147 256.818 205.563 255.957L208.82 249.205L236.527 255.381C237.127 255.514 237.748 255.514 238.348 255.381C238.947 255.248 239.511 254.985 239.997 254.611C240.484 254.237 240.883 253.761 241.165 253.216C241.447 252.672 241.606 252.072 241.63 251.459L244.212 184.425L261.843 160.9L261.892 160.307L260.429 158.562Z" fill="black"/>
<path d="M83.7206 134.85L77.4496 242.059C77.3916 243.051 77.6892 244.032 78.2891 244.825C78.889 245.618 79.7522 246.173 80.724 246.389L247.265 283.309C247.849 283.437 248.453 283.439 249.038 283.314C249.622 283.189 250.173 282.941 250.654 282.586C251.135 282.231 251.534 281.778 251.825 281.257C252.115 280.735 252.291 280.158 252.34 279.563L262.1 160.549L169.688 205.798L83.7206 134.85Z" fill="#DCDFED"/>
<path opacity="0.1" d="M78.5962 244.514L165.116 191.223C166.397 190.447 167.912 190.149 169.392 190.38C170.872 190.612 172.223 191.358 173.206 192.487L250.645 282.653C250.926 282.976 251.063 282.744 250.645 282.653L78.5962 244.514C78.1038 244.405 78.1671 244.77 78.5962 244.514Z" fill="black"/>
<path d="M79.2152 244.426L164.842 192.786C166.196 191.969 167.794 191.656 169.357 191.902C170.919 192.147 172.344 192.935 173.381 194.127L250.121 282.235C250.248 282.382 250.325 282.564 250.342 282.758C250.359 282.951 250.315 283.144 250.216 283.311C250.117 283.478 249.968 283.609 249.789 283.686C249.611 283.763 249.413 283.783 249.224 283.741L79.493 246.115C79.3123 246.076 79.1475 245.983 79.0201 245.85C78.8926 245.716 78.8084 245.547 78.7785 245.365C78.7485 245.182 78.7741 244.996 78.852 244.828C78.9299 244.661 79.0564 244.52 79.2152 244.426Z" fill="#E3E5F1"/>
</g>
<defs>
<linearGradient id="paint0_linear" x1="296.124" y1="281.751" x2="296.124" y2="64.2035" gradientUnits="userSpaceOnUse">
<stop stop-color="#808080" stop-opacity="0.25"/>
<stop offset="0.54" stop-color="#808080" stop-opacity="0.12"/>
<stop offset="1" stop-color="#808080" stop-opacity="0.1"/>
</linearGradient>
<clipPath id="clip0">
<rect width="364" height="292" fill="white"/>
</clipPath>
</defs>
</svg>
