<svg width="371" height="23" viewBox="0 0 371 23" fill="none" xmlns="http://www.w3.org/2000/svg">
<path d="M9.34 5.744L10.312 7.292L1.84 12.488L10.312 17.732L9.232 19.208L0.112 13.508V11.444L9.34 5.744ZM348.658 22.472L347.026 21.752L357.298 0.571999L358.906 1.364L357.718 3.8L370.078 11.444V13.508L360.97 19.208L359.878 17.72L368.35 12.488L356.926 5.444L348.658 22.472Z" fill="#ABB2BF"/>
<path d="M22.7946 15.788H16.2546L14.9346 20H12.8826L18.2586 3.476H20.9226L26.2986 20H24.1146L22.7946 15.788ZM16.7946 14.06H22.2546L19.5426 5.228L16.7946 14.06ZM29.3133 20V18.452H31.2813V8.912H29.3133V7.364H32.8173L33.1893 10.352C33.6773 9.312 34.2693 8.508 34.9653 7.94C35.6613 7.372 36.5813 7.088 37.7253 7.088C38.0773 7.088 38.3893 7.116 38.6613 7.172C38.9413 7.22 39.2253 7.284 39.5133 7.364L39.2253 11.636H37.5693V8.948C37.5373 8.948 37.5013 8.948 37.4613 8.948C35.5253 8.948 34.1373 10.332 33.2973 13.1V18.452H35.8653V20H29.3133ZM45.7319 2.024V20H43.7159V2.276L45.7319 2.024ZM54.1679 7.364L48.4799 13.052L54.8279 20H52.1759L45.9599 13.1L51.5519 7.364H54.1679ZM67.0225 17.24C67.0225 17.752 67.1065 18.124 67.2745 18.356C67.4425 18.588 67.7025 18.756 68.0545 18.86L67.5625 20.276C67.0185 20.204 66.5425 20.032 66.1345 19.76C65.7265 19.48 65.4305 19.06 65.2465 18.5C64.7905 19.084 64.2185 19.528 63.5305 19.832C62.8505 20.128 62.1025 20.276 61.2865 20.276C60.0225 20.276 59.0265 19.92 58.2985 19.208C57.5705 18.496 57.2065 17.552 57.2065 16.376C57.2065 15.072 57.7145 14.072 58.7305 13.376C59.7465 12.68 61.2145 12.332 63.1345 12.332H64.9945V11.276C64.9945 10.364 64.7265 9.72 64.1905 9.344C63.6625 8.96 62.9265 8.768 61.9825 8.768C61.5665 8.768 61.0785 8.82 60.5185 8.924C59.9585 9.02 59.3505 9.184 58.6945 9.416L58.1665 7.892C58.9345 7.604 59.6585 7.4 60.3385 7.28C61.0265 7.16 61.6785 7.1 62.2945 7.1C63.8625 7.1 65.0425 7.468 65.8345 8.204C66.6265 8.94 67.0225 9.932 67.0225 11.18V17.24ZM61.8025 18.74C62.4265 18.74 63.0185 18.584 63.5785 18.272C64.1465 17.952 64.6185 17.512 64.9945 16.952V13.7H63.1705C61.7785 13.7 60.7945 13.94 60.2185 14.42C59.6505 14.9 59.3665 15.544 59.3665 16.352C59.3665 17.944 60.1785 18.74 61.8025 18.74ZM79.9251 2.024L81.9411 2.276V20H80.1771L79.9851 18.332C79.5131 19.004 78.9691 19.496 78.3531 19.808C77.7451 20.12 77.0931 20.276 76.3971 20.276C75.3011 20.276 74.3971 20 73.6851 19.448C72.9731 18.896 72.4451 18.128 72.1011 17.144C71.7571 16.152 71.5851 15.004 71.5851 13.7C71.5851 12.436 71.7811 11.308 72.1731 10.316C72.5651 9.316 73.1291 8.532 73.8651 7.964C74.6091 7.388 75.5011 7.1 76.5411 7.1C77.9411 7.1 79.0691 7.596 79.9251 8.588V2.024ZM77.0691 8.72C76.0131 8.72 75.2011 9.132 74.6331 9.956C74.0651 10.78 73.7811 12.028 73.7811 13.7C73.7811 16.996 74.7931 18.644 76.8171 18.644C77.5291 18.644 78.1411 18.444 78.6531 18.044C79.1651 17.636 79.5891 17.172 79.9251 16.652V10.34C79.5811 9.828 79.1651 9.432 78.6771 9.152C78.1891 8.864 77.6531 8.72 77.0691 8.72ZM91.5438 1.448C91.9918 1.448 92.3478 1.584 92.6118 1.856C92.8838 2.128 93.0198 2.46 93.0198 2.852C93.0198 3.26 92.8838 3.604 92.6118 3.884C92.3478 4.156 91.9918 4.292 91.5438 4.292C91.1198 4.292 90.7718 4.156 90.4998 3.884C90.2278 3.604 90.0918 3.26 90.0918 2.852C90.0918 2.46 90.2278 2.128 90.4998 1.856C90.7718 1.584 91.1198 1.448 91.5438 1.448ZM93.1518 7.364V18.404H96.7158V20H87.2358V18.404H91.1358V8.96H87.3558V7.364H93.1518ZM103.162 7.364V16.316C103.162 17.148 103.334 17.748 103.678 18.116C104.022 18.484 104.558 18.668 105.286 18.668C105.982 18.668 106.638 18.472 107.254 18.08C107.878 17.68 108.362 17.208 108.706 16.664V7.364H110.722V20H109.006L108.838 18.296C108.342 18.936 107.726 19.428 106.99 19.772C106.262 20.108 105.53 20.276 104.794 20.276C103.57 20.276 102.654 19.952 102.046 19.304C101.446 18.648 101.146 17.732 101.146 16.556V7.364H103.162ZM119.833 18.608C120.809 18.608 121.577 18.428 122.137 18.068C122.697 17.708 122.977 17.22 122.977 16.604C122.977 16.228 122.905 15.9 122.761 15.62C122.625 15.34 122.341 15.088 121.909 14.864C121.477 14.632 120.813 14.404 119.917 14.18C119.045 13.964 118.285 13.716 117.637 13.436C116.997 13.148 116.497 12.776 116.137 12.32C115.785 11.864 115.609 11.272 115.609 10.544C115.609 9.48 116.053 8.64 116.941 8.024C117.829 7.408 118.985 7.1 120.409 7.1C121.425 7.1 122.309 7.236 123.061 7.508C123.821 7.78 124.465 8.108 124.993 8.492L124.105 9.86C123.633 9.532 123.105 9.264 122.521 9.056C121.945 8.84 121.249 8.732 120.433 8.732C119.441 8.732 118.737 8.888 118.321 9.2C117.905 9.504 117.697 9.9 117.697 10.388C117.697 10.764 117.797 11.076 117.997 11.324C118.205 11.564 118.553 11.78 119.041 11.972C119.529 12.164 120.201 12.376 121.057 12.608C121.881 12.832 122.601 13.096 123.217 13.4C123.833 13.704 124.309 14.104 124.645 14.6C124.989 15.088 125.161 15.724 125.161 16.508C125.161 17.404 124.905 18.132 124.393 18.692C123.881 19.244 123.217 19.648 122.401 19.904C121.593 20.152 120.737 20.276 119.833 20.276C118.689 20.276 117.713 20.112 116.905 19.784C116.105 19.448 115.433 19.044 114.889 18.572L116.041 17.24C116.537 17.648 117.105 17.98 117.745 18.236C118.393 18.484 119.089 18.608 119.833 18.608ZM132.448 18.284H139.48L139.216 20H129.976V18.476L136.984 9.116H130.528V7.364H139.408V8.924L132.448 18.284ZM154.854 15.284C154.854 16.188 154.674 16.944 154.314 17.552C153.962 18.152 153.486 18.632 152.886 18.992C152.294 19.352 151.63 19.612 150.894 19.772C150.166 19.924 149.422 20 148.662 20H144.222V3.476H148.29C149.01 3.476 149.718 3.544 150.414 3.68C151.11 3.808 151.738 4.032 152.298 4.352C152.858 4.664 153.302 5.088 153.63 5.624C153.966 6.16 154.134 6.832 154.134 7.64C154.134 8.352 153.986 8.956 153.69 9.452C153.402 9.94 153.022 10.332 152.55 10.628C152.086 10.924 151.59 11.132 151.062 11.252C151.67 11.356 152.262 11.548 152.838 11.828C153.422 12.1 153.902 12.512 154.278 13.064C154.662 13.616 154.854 14.356 154.854 15.284ZM151.998 7.748C151.998 6.812 151.706 6.148 151.122 5.756C150.546 5.356 149.758 5.156 148.758 5.156H146.298V10.508H148.962C149.938 10.508 150.686 10.292 151.206 9.86C151.734 9.42 151.998 8.716 151.998 7.748ZM152.658 15.356C152.658 14.524 152.494 13.884 152.166 13.436C151.846 12.98 151.418 12.664 150.882 12.488C150.346 12.312 149.758 12.224 149.118 12.224H146.298V18.284H149.022C149.566 18.284 150.118 18.212 150.678 18.068C151.238 17.916 151.706 17.632 152.082 17.216C152.466 16.792 152.658 16.172 152.658 15.356ZM167.757 17.24C167.757 17.752 167.841 18.124 168.009 18.356C168.177 18.588 168.437 18.756 168.789 18.86L168.297 20.276C167.753 20.204 167.277 20.032 166.869 19.76C166.461 19.48 166.165 19.06 165.981 18.5C165.525 19.084 164.953 19.528 164.265 19.832C163.585 20.128 162.837 20.276 162.021 20.276C160.757 20.276 159.761 19.92 159.033 19.208C158.305 18.496 157.941 17.552 157.941 16.376C157.941 15.072 158.449 14.072 159.465 13.376C160.481 12.68 161.949 12.332 163.869 12.332H165.729V11.276C165.729 10.364 165.461 9.72 164.925 9.344C164.397 8.96 163.661 8.768 162.717 8.768C162.301 8.768 161.813 8.82 161.253 8.924C160.693 9.02 160.085 9.184 159.429 9.416L158.901 7.892C159.669 7.604 160.393 7.4 161.073 7.28C161.761 7.16 162.413 7.1 163.029 7.1C164.597 7.1 165.777 7.468 166.569 8.204C167.361 8.94 167.757 9.932 167.757 11.18V17.24ZM162.537 18.74C163.161 18.74 163.753 18.584 164.313 18.272C164.881 17.952 165.353 17.512 165.729 16.952V13.7H163.905C162.513 13.7 161.529 13.94 160.953 14.42C160.385 14.9 160.101 15.544 160.101 16.352C160.101 17.944 160.913 18.74 162.537 18.74ZM178.812 18.536C179.444 18.536 180.032 18.436 180.576 18.236C181.128 18.028 181.636 17.76 182.1 17.432L183.083 18.752C182.532 19.224 181.868 19.596 181.092 19.868C180.316 20.14 179.556 20.276 178.812 20.276C177.556 20.276 176.484 20.008 175.596 19.472C174.716 18.928 174.044 18.168 173.58 17.192C173.116 16.208 172.884 15.056 172.884 13.736C172.884 12.472 173.116 11.34 173.58 10.34C174.044 9.34 174.72 8.552 175.608 7.976C176.496 7.392 177.572 7.1 178.836 7.1C180.444 7.1 181.852 7.588 183.06 8.564L182.076 9.908C180.98 9.156 179.892 8.78 178.812 8.78C177.724 8.78 176.828 9.192 176.124 10.016C175.42 10.832 175.068 12.072 175.068 13.736C175.068 15.424 175.42 16.648 176.124 17.408C176.828 18.16 177.724 18.536 178.812 18.536ZM189.506 2.084V9.092C190.002 8.436 190.61 7.94 191.33 7.604C192.058 7.268 192.794 7.1 193.538 7.1C194.77 7.1 195.67 7.428 196.238 8.084C196.806 8.74 197.09 9.652 197.09 10.82V20H195.074V10.868C195.074 10.108 194.898 9.556 194.546 9.212C194.194 8.86 193.642 8.684 192.89 8.684C192.41 8.684 191.954 8.792 191.522 9.008C191.09 9.224 190.702 9.492 190.358 9.812C190.014 10.132 189.73 10.46 189.506 10.796V20H187.49V2.3L189.506 2.084ZM206.693 7.1C208.477 7.1 209.825 7.696 210.737 8.888C211.649 10.08 212.105 11.676 212.105 13.676C212.105 14.964 211.897 16.104 211.481 17.096C211.065 18.088 210.453 18.868 209.645 19.436C208.837 19.996 207.845 20.276 206.669 20.276C204.885 20.276 203.533 19.676 202.613 18.476C201.693 17.276 201.233 15.684 201.233 13.7C201.233 12.404 201.441 11.26 201.857 10.268C202.273 9.268 202.885 8.492 203.693 7.94C204.509 7.38 205.509 7.1 206.693 7.1ZM206.693 8.744C205.605 8.744 204.781 9.148 204.221 9.956C203.669 10.764 203.393 12.012 203.393 13.7C203.393 15.372 203.665 16.612 204.209 17.42C204.761 18.22 205.581 18.62 206.669 18.62C207.757 18.62 208.573 18.216 209.117 17.408C209.669 16.6 209.945 15.356 209.945 13.676C209.945 11.996 209.673 10.756 209.129 9.956C208.585 9.148 207.773 8.744 206.693 8.744ZM216.391 20V18.452H218.359V8.912H216.391V7.364H219.895L220.267 10.352C220.755 9.312 221.347 8.508 222.043 7.94C222.739 7.372 223.659 7.088 224.803 7.088C225.155 7.088 225.467 7.116 225.739 7.172C226.019 7.22 226.303 7.284 226.591 7.364L226.303 11.636H224.647V8.948C224.615 8.948 224.579 8.948 224.539 8.948C222.603 8.948 221.215 10.332 220.375 13.1V18.452H222.943V20H216.391ZM234.958 18.608C235.934 18.608 236.702 18.428 237.262 18.068C237.822 17.708 238.102 17.22 238.102 16.604C238.102 16.228 238.03 15.9 237.886 15.62C237.75 15.34 237.466 15.088 237.034 14.864C236.602 14.632 235.938 14.404 235.042 14.18C234.17 13.964 233.41 13.716 232.762 13.436C232.122 13.148 231.622 12.776 231.262 12.32C230.91 11.864 230.734 11.272 230.734 10.544C230.734 9.48 231.178 8.64 232.066 8.024C232.954 7.408 234.11 7.1 235.534 7.1C236.55 7.1 237.434 7.236 238.186 7.508C238.946 7.78 239.59 8.108 240.118 8.492L239.23 9.86C238.758 9.532 238.23 9.264 237.646 9.056C237.07 8.84 236.374 8.732 235.558 8.732C234.566 8.732 233.862 8.888 233.446 9.2C233.03 9.504 232.822 9.9 232.822 10.388C232.822 10.764 232.922 11.076 233.122 11.324C233.33 11.564 233.678 11.78 234.166 11.972C234.654 12.164 235.326 12.376 236.182 12.608C237.006 12.832 237.726 13.096 238.342 13.4C238.958 13.704 239.434 14.104 239.77 14.6C240.114 15.088 240.286 15.724 240.286 16.508C240.286 17.404 240.03 18.132 239.518 18.692C239.006 19.244 238.342 19.648 237.526 19.904C236.718 20.152 235.862 20.276 234.958 20.276C233.814 20.276 232.838 20.112 232.03 19.784C231.23 19.448 230.558 19.044 230.014 18.572L231.166 17.24C231.662 17.648 232.23 17.98 232.87 18.236C233.518 18.484 234.214 18.608 234.958 18.608ZM247.201 2.024V20H245.185V2.276L247.201 2.024ZM255.637 7.364L249.949 13.052L256.297 20H253.645L247.429 13.1L253.021 7.364H255.637ZM264.231 1.448C264.679 1.448 265.035 1.584 265.299 1.856C265.571 2.128 265.707 2.46 265.707 2.852C265.707 3.26 265.571 3.604 265.299 3.884C265.035 4.156 264.679 4.292 264.231 4.292C263.807 4.292 263.459 4.156 263.187 3.884C262.915 3.604 262.779 3.26 262.779 2.852C262.779 2.46 262.915 2.128 263.187 1.856C263.459 1.584 263.807 1.448 264.231 1.448ZM265.839 7.364V18.404H269.403V20H259.923V18.404H263.823V8.96H260.043V7.364H265.839Z" fill="#F07178"/>
<path d="M293.937 18.536C294.569 18.536 295.157 18.436 295.701 18.236C296.253 18.028 296.761 17.76 297.225 17.432L298.208 18.752C297.657 19.224 296.993 19.596 296.217 19.868C295.441 20.14 294.681 20.276 293.937 20.276C292.681 20.276 291.609 20.008 290.721 19.472C289.841 18.928 289.169 18.168 288.705 17.192C288.241 16.208 288.009 15.056 288.009 13.736C288.009 12.472 288.241 11.34 288.705 10.34C289.169 9.34 289.845 8.552 290.733 7.976C291.621 7.392 292.697 7.1 293.961 7.1C295.569 7.1 296.977 7.588 298.185 8.564L297.201 9.908C296.105 9.156 295.017 8.78 293.937 8.78C292.849 8.78 291.953 9.192 291.249 10.016C290.545 10.832 290.193 12.072 290.193 13.736C290.193 15.424 290.545 16.648 291.249 17.408C291.953 18.16 292.849 18.536 293.937 18.536ZM307.427 7.1C309.211 7.1 310.559 7.696 311.471 8.888C312.383 10.08 312.839 11.676 312.839 13.676C312.839 14.964 312.631 16.104 312.215 17.096C311.799 18.088 311.187 18.868 310.379 19.436C309.571 19.996 308.579 20.276 307.403 20.276C305.619 20.276 304.267 19.676 303.347 18.476C302.427 17.276 301.967 15.684 301.967 13.7C301.967 12.404 302.175 11.26 302.591 10.268C303.007 9.268 303.619 8.492 304.427 7.94C305.243 7.38 306.243 7.1 307.427 7.1ZM307.427 8.744C306.339 8.744 305.515 9.148 304.955 9.956C304.403 10.764 304.127 12.012 304.127 13.7C304.127 15.372 304.399 16.612 304.943 17.42C305.495 18.22 306.315 18.62 307.403 18.62C308.491 18.62 309.307 18.216 309.851 17.408C310.403 16.6 310.679 15.356 310.679 13.676C310.679 11.996 310.407 10.756 309.863 9.956C309.319 9.148 308.507 8.744 307.427 8.744ZM325.334 7.1C325.734 7.1 326.122 7.188 326.498 7.364C326.874 7.54 327.182 7.88 327.422 8.384C327.662 8.888 327.782 9.624 327.782 10.592V20H325.91V10.916C325.91 10.124 325.862 9.552 325.766 9.2C325.67 8.848 325.394 8.672 324.938 8.672C324.562 8.672 324.186 8.792 323.81 9.032C323.434 9.264 323.074 9.648 322.73 10.184V20H320.846V10.916C320.846 10.124 320.798 9.552 320.702 9.2C320.606 8.848 320.33 8.672 319.874 8.672C319.482 8.672 319.102 8.792 318.734 9.032C318.366 9.264 318.01 9.648 317.666 10.184V20H315.806V7.364H317.39L317.51 8.828C317.854 8.34 318.238 7.932 318.662 7.604C319.094 7.268 319.626 7.1 320.258 7.1C320.738 7.1 321.19 7.216 321.614 7.448C322.038 7.672 322.35 8.112 322.55 8.768C322.894 8.272 323.282 7.872 323.714 7.568C324.146 7.256 324.686 7.1 325.334 7.1Z" fill="#E5C17C"/>
</svg>
