<svg width="284" height="192" viewBox="0 0 284 192" fill="none" xmlns="http://www.w3.org/2000/svg">
<g clip-path="url(#clip0)">
<path d="M271.781 16.3812H20.1026C16.241 16.3812 13.1105 19.519 13.1105 23.3897V189.665C13.1105 193.535 16.241 196.673 20.1026 196.673H271.781C275.643 196.673 278.773 193.535 278.773 189.665V23.3897C278.773 19.519 275.643 16.3812 271.781 16.3812Z" fill="#F2F2F2"/>
<path d="M263.671 5H11.9922C8.1305 5 5 8.13781 5 12.0085V178.283C5 182.154 8.1305 185.292 11.9922 185.292H263.671C267.532 185.292 270.663 182.154 270.663 178.283V12.0085C270.663 8.13781 267.532 5 263.671 5Z" stroke="#3F3D56" stroke-miterlimit="10"/>
<rect x="31.169" y="49.4658" width="99.4368" height="128.213" rx="9" fill="#F07178"/>
<path d="M5 22.285H270.663" stroke="#3F3D56" stroke-miterlimit="10"/>
<path opacity="0.3" d="M233.682 62.809H166.342C164.93 62.809 163.785 63.9563 163.785 65.3716V71.447C163.785 72.8622 164.93 74.0095 166.342 74.0095H233.682C235.094 74.0095 236.238 72.8622 236.238 71.447V65.3716C236.238 63.9563 235.094 62.809 233.682 62.809Z" fill="#F07178"/>
<path opacity="0.3" d="M247.56 93.8813H152.464C151.052 93.8813 149.907 95.0287 149.907 96.4439V100.351C149.907 101.767 151.052 102.914 152.464 102.914H247.56C248.972 102.914 250.116 101.767 250.116 100.351V96.4439C250.116 95.0287 248.972 93.8813 247.56 93.8813Z" fill="#F07178"/>
<path opacity="0.3" d="M247.56 118.45H152.464C151.052 118.45 149.907 119.597 149.907 121.013V124.92C149.907 126.336 151.052 127.483 152.464 127.483H247.56C248.972 127.483 250.116 126.336 250.116 124.92V121.013C250.116 119.597 248.972 118.45 247.56 118.45Z" fill="#F07178"/>
<path opacity="0.3" d="M247.56 143.019H152.464C151.052 143.019 149.907 144.166 149.907 145.582V149.489C149.907 150.904 151.052 152.052 152.464 152.052H247.56C248.972 152.052 250.116 150.904 250.116 149.489V145.582C250.116 144.166 248.972 143.019 247.56 143.019Z" fill="#F07178"/>
<path d="M237.286 59.1959H169.946C168.534 59.1959 167.39 60.3432 167.39 61.7585V67.8338C167.39 69.2491 168.534 70.3964 169.946 70.3964H237.286C238.698 70.3964 239.843 69.2491 239.843 67.8338V61.7585C239.843 60.3432 238.698 59.1959 237.286 59.1959Z" stroke="#3F3D56" stroke-miterlimit="10"/>
<path d="M251.164 90.2684H156.068C154.656 90.2684 153.512 91.4157 153.512 92.8309V96.7384C153.512 98.1537 154.656 99.301 156.068 99.301H251.164C252.576 99.301 253.721 98.1537 253.721 96.7384V92.8309C253.721 91.4157 252.576 90.2684 251.164 90.2684Z" stroke="#3F3D56" stroke-miterlimit="10"/>
<path d="M251.164 114.837H156.068C154.656 114.837 153.512 115.984 153.512 117.4V121.307C153.512 122.722 154.656 123.87 156.068 123.87H251.164C252.576 123.87 253.721 122.722 253.721 121.307V117.4C253.721 115.984 252.576 114.837 251.164 114.837Z" stroke="#3F3D56" stroke-miterlimit="10"/>
<path d="M251.164 139.406H156.068C154.656 139.406 153.512 140.553 153.512 141.969V145.876C153.512 147.291 154.656 148.439 156.068 148.439H251.164C252.576 148.439 253.721 147.291 253.721 145.876V141.969C253.721 140.553 252.576 139.406 251.164 139.406Z" stroke="#3F3D56" stroke-miterlimit="10"/>
<path opacity="0.3" d="M25.186 21.2588C28.1722 21.2588 30.593 18.8324 30.593 15.8392C30.593 12.8461 28.1722 10.4196 25.186 10.4196C22.1998 10.4196 19.7791 12.8461 19.7791 15.8392C19.7791 18.8324 22.1998 21.2588 25.186 21.2588Z" fill="#F07178"/>
<path opacity="0.3" d="M40.3256 21.2588C43.3118 21.2588 45.7326 18.8324 45.7326 15.8392C45.7326 12.8461 43.3118 10.4196 40.3256 10.4196C37.3394 10.4196 34.9186 12.8461 34.9186 15.8392C34.9186 18.8324 37.3394 21.2588 40.3256 21.2588Z" fill="#F07178"/>
<path opacity="0.3" d="M55.4651 21.2588C58.4513 21.2588 60.8721 18.8324 60.8721 15.8392C60.8721 12.8461 58.4513 10.4196 55.4651 10.4196C52.4789 10.4196 50.0581 12.8461 50.0581 15.8392C50.0581 18.8324 52.4789 21.2588 55.4651 21.2588Z" fill="#F07178"/>
<path d="M27.3489 19.091C30.335 19.091 32.7558 16.6645 32.7558 13.6714C32.7558 10.6782 30.335 8.25177 27.3489 8.25177C24.3627 8.25177 21.9419 10.6782 21.9419 13.6714C21.9419 16.6645 24.3627 19.091 27.3489 19.091Z" stroke="#3F3D56" stroke-miterlimit="10"/>
<path d="M42.4884 19.091C45.4746 19.091 47.8954 16.6645 47.8954 13.6714C47.8954 10.6782 45.4746 8.25177 42.4884 8.25177C39.5022 8.25177 37.0814 10.6782 37.0814 13.6714C37.0814 16.6645 39.5022 19.091 42.4884 19.091Z" stroke="#3F3D56" stroke-miterlimit="10"/>
<path d="M57.6279 19.091C60.6141 19.091 63.0349 16.6645 63.0349 13.6714C63.0349 10.6782 60.6141 8.25177 57.6279 8.25177C54.6417 8.25177 52.2209 10.6782 52.2209 13.6714C52.2209 16.6645 54.6417 19.091 57.6279 19.091Z" stroke="#3F3D56" stroke-miterlimit="10"/>
<path d="M113.582 39.6854H30.5107C25.7783 39.6854 21.9419 43.5307 21.9419 48.2742V159.36C21.9419 164.104 25.7783 167.949 30.5107 167.949H113.582C118.315 167.949 122.151 164.104 122.151 159.36V48.2742C122.151 43.5307 118.315 39.6854 113.582 39.6854Z" stroke="#3F3D56" stroke-miterlimit="10"/>
<mask id="mask0" mask-type="alpha" maskUnits="userSpaceOnUse" x="31" y="49" width="100" height="129">
<rect x="31.169" y="49.4658" width="99.4368" height="128.213" fill="#C4C4C4"/>
</mask>
<g mask="url(#mask0)">
<path d="M87.0448 83.9832C87.0448 83.9832 83.6837 82.9871 82.9628 84.071C82.2419 85.155 83.9457 93.0125 83.9457 93.0125L91.3518 93.4636L88.7672 86.9217L87.0448 83.9832Z" fill="#2F2E41"/>
<path d="M61.1346 148.509C61.1346 148.509 67.8734 163.338 62.6838 162.872C57.4941 162.406 55.4802 148.509 55.4802 148.509H61.1346Z" fill="#FFB9B9"/>
<path d="M105.208 146.964C105.208 146.964 102.251 162.987 107.174 161.276C112.097 159.564 110.694 145.592 110.694 145.592L105.208 146.964Z" fill="#FFB9B9"/>
<path d="M85.6111 80.2652C85.6111 80.2652 85.5336 87.7185 88.3995 88.1067C91.2654 88.4949 86.7729 92.4544 86.7729 92.4544L81.6607 93.4637L74.3023 92.9202L71.0491 88.7278C71.0491 88.7278 76.781 86.0104 74.3023 77.5479L85.6111 80.2652Z" fill="#FFB9B9"/>
<path opacity="0.1" d="M85.6111 80.2652C85.6111 80.2652 85.5336 87.7185 88.3995 88.1067C91.2654 88.4949 86.7729 92.4544 86.7729 92.4544L81.6607 93.4637L74.3023 92.9202L71.0491 88.7278C71.0491 88.7278 76.781 86.0104 74.3023 77.5479L85.6111 80.2652Z" fill="black"/>
<path d="M98.7788 143.307C98.7788 143.307 102.419 151.149 99.5534 175.76C99.5534 175.76 100.405 184.455 99.7083 186.086C99.0112 187.716 93.2793 209.843 93.2793 209.843C93.2793 209.843 85.9209 211.473 84.9139 206.582C84.9139 206.582 85.9209 199.595 85.8434 198.508C85.766 197.421 87.47 185.542 87.47 185.542L83.9845 162.561L81.3509 183.291C81.3509 183.291 81.3509 189.269 80.4989 190.589C79.6469 191.909 80.4989 218.461 80.4989 218.461C80.4989 218.461 82.9 222.498 79.2596 222.576C75.6191 222.653 72.3659 222.498 72.056 219.936C71.7462 217.374 71.5913 214.812 70.8167 213.259C70.0421 211.706 69.0352 193.927 69.2676 187.716C69.4999 181.505 64.1554 149.596 65.8595 146.257C67.5635 142.919 98.7788 143.307 98.7788 143.307Z" fill="#2F2E41"/>
<path d="M81.6608 83.0602C86.7942 83.0602 90.9556 78.8891 90.9556 73.7437C90.9556 68.5983 86.7942 64.4271 81.6608 64.4271C76.5274 64.4271 72.3659 68.5983 72.3659 73.7437C72.3659 78.8891 76.5274 83.0602 81.6608 83.0602Z" fill="#FFB9B9"/>
<path d="M72.3659 88.8831C72.3659 88.8831 78.0203 93.0755 86.2307 89.7371C86.2307 89.7371 88.9417 88.4173 88.7094 86.3987C88.477 84.3801 94.3637 102.625 94.3637 102.625L100.328 134.379L100.018 147.344C100.018 147.344 97.3846 146.025 89.1741 148.975C80.9637 151.925 67.5635 145.636 67.5635 145.636L68.0283 112.33L68.493 92.9203L69.7323 88.6502C69.7323 88.6502 70.352 87.4856 72.3659 88.8831Z" fill="#F2F2F2"/>
<path d="M85.8694 83.6712C85.8694 83.6712 87.2377 83.4484 88.5545 85.5447C89.8712 87.6409 92.9695 88.9607 92.9695 88.9607C92.9695 88.9607 100.483 89.4265 101.567 93.4637C102.652 97.5009 105.363 103.013 106.679 113.184C107.996 123.354 110.63 139.581 111.017 140.901C111.404 142.22 110.475 146.258 111.559 147.5C112.644 148.742 103.891 148.742 103.891 148.742C103.891 148.742 103.116 142.376 102.574 142.376C102.032 142.376 102.187 146.646 102.729 149.751C103.271 152.857 98.7788 149.751 98.7788 149.751C98.7788 149.751 95.2932 135.544 91.9626 122.733C88.6319 109.923 86.6955 102.858 87.3151 99.9853C87.9348 97.1127 89.6388 88.8831 88.3995 88.1067C87.1602 87.3303 85.8694 83.6712 85.8694 83.6712Z" fill="#2F2E41"/>
<path d="M74.6994 83.6644C74.6994 83.6644 72.6757 84.7683 67.5635 88.4173C62.4514 92.0662 58.9658 94.8612 58.9658 94.8612C58.9658 94.8612 56.9519 96.414 55.7126 105.653C54.4733 114.892 51.6848 138.804 52.7692 141.832C53.8536 144.86 54.2409 146.646 53.8536 148.431C53.4663 150.217 61.9866 150.139 62.1415 149.751C62.2965 149.363 61.9092 142.298 62.2965 142.143C62.6837 141.987 64.7751 146.335 65.1624 149.984C65.5497 153.633 70.0422 156.506 71.0491 156.506C72.0561 156.506 77.2457 135.466 77.3232 121.103C77.4006 106.74 75.6191 94.6283 74.3023 92.9203C72.9856 91.2122 74.6994 83.6644 74.6994 83.6644Z" fill="#2F2E41"/>
<path d="M78.7173 66.2904C78.7173 66.2904 83.0549 67.4549 85.3012 67.9208C87.5474 68.3866 87.315 67.0667 87.315 67.0667C87.315 67.0667 90.2584 67.4549 90.1035 67.1444C89.9486 66.8338 91.3428 65.2034 89.7162 63.3401C88.0896 61.4768 88.5544 60.0793 88.5544 60.0793H87.1601L86.7728 59.5359H84.604C84.604 59.5359 82.9775 58.9148 78.7173 59.5359C74.4572 60.157 68.6479 60.3122 68.1832 62.8743C67.7184 65.4364 65.3172 68.6195 66.1693 70.0946C67.0213 71.5697 71.9011 77.6255 72.3658 80.1875C72.8306 82.7496 75.0006 83.3188 74.9225 81.7144C74.8445 80.1099 72.6757 74.52 74.5346 74.2871C76.3936 74.0542 79.5693 69.3182 78.7173 66.2904Z" fill="#ECCD80"/>
</g>
</g>
<defs>
<clipPath id="clip0">
<rect width="284" height="192" fill="white"/>
</clipPath>
</defs>
</svg>
