<svg width="416" height="213" viewBox="0 0 416 213" fill="none" xmlns="http://www.w3.org/2000/svg">
<path d="M365.673 0.000806662L48.327 0.00082067C39.8621 0.00082067 33 -0.249993 33 8.09294V190.894C33 199.237 39.8621 206 48.327 206H365.673C374.138 206 381 199.237 381 190.894V8.09294C381 -0.249993 374.138 0.000806662 365.673 0.000806662Z" fill="#535461"/>
<path d="M208.06 11.7313C209.751 11.7313 211.121 10.4483 211.121 8.86564C211.121 7.28299 209.751 6 208.06 6C206.37 6 205 7.28299 205 8.86564C205 10.4483 206.37 11.7313 208.06 11.7313Z" fill="white"/>
<path d="M366.673 199L49.327 199C40.8621 199 34 198.992 34 199.275V205.487C34 205.77 40.8621 206 49.327 206H366.673C375.138 206 382 205.77 382 205.487V199.275C382 199 375.524 199 367.393 199L366.673 199Z" fill="white"/>
<path d="M374 14H40V201H374V14Z" fill="white"/>
<path d="M366.673 199L49.327 199C40.8621 199 34 198.996 34 199.118V201.78C34 201.902 40.8621 202 49.327 202H366.673C375.138 202 382 201.902 382 201.78V199.118C382 199 375.524 199 367.393 199L366.673 199Z" fill="#535461"/>
<path d="M257.274 199L246.225 207.334H169.637L159.8 199H3.49042C2.5647 199 1.6769 199.199 1.02232 199.554C0.367744 199.909 0 200.39 0 200.892V202.417C0 205.224 2.05696 207.915 5.71837 209.9C9.37978 211.885 14.3457 213 19.5237 213H396.476C399.04 213 401.579 212.726 403.948 212.194C406.316 211.663 408.469 210.883 410.282 209.9C412.095 208.917 413.533 207.751 414.514 206.467C415.495 205.183 416 203.806 416 202.417V200.892C416 200.39 415.632 199.909 414.978 199.554C414.323 199.199 413.435 199 412.51 199H257.274Z" fill="#535461"/>
</svg>
