<svg width="409" height="258" viewBox="0 0 409 258" fill="none" xmlns="http://www.w3.org/2000/svg">
<ellipse cx="200" cy="244.596" rx="189" ry="9.05911" fill="#3F3D56"/>
<path d="M283.376 116.481L285.92 115.53C286.163 115.439 286.403 115.34 286.658 115.245C281.951 113.592 277.974 110.46 275.381 106.365C272.788 102.269 271.732 97.4538 272.389 92.7104C273.045 87.9669 275.374 83.5776 278.992 80.2643C282.611 76.9509 287.303 74.9107 292.298 74.4791L290.527 83.0006L297.252 74.5777H297.311C303.117 75.3391 308.368 78.2689 311.909 82.7229C315.451 87.1769 316.993 92.7904 316.196 98.3287C316.141 98.7266 316.052 99.114 315.975 99.5048C318.045 97.9449 319.987 96.223 321.442 94.2229C324.395 90.1593 325.395 85.1521 326.414 79.0215C328.433 66.8801 330.253 54.6049 331.892 42.3367C326.859 40.8883 322.533 37.7749 319.691 33.5562C316.849 29.3375 315.678 24.2902 316.388 19.3216C316.48 18.6807 316.61 18.0574 316.757 17.4412C316.794 17.2863 316.831 17.1313 316.872 16.9799C317.03 16.3848 317.208 15.8003 317.414 15.2193C317.448 15.1242 317.492 15.0362 317.525 14.9446C317.71 14.4622 317.894 13.9868 318.134 13.5361C318.215 13.36 318.297 13.184 318.381 13.0185C318.636 12.5149 318.906 12.0219 319.201 11.5431C319.301 11.3846 319.408 11.2332 319.507 11.0747C319.736 10.7226 319.976 10.3705 320.223 10.043C320.356 9.86692 320.485 9.69086 320.622 9.51831L320.722 9.38098C323.856 5.46769 328.329 2.72589 333.362 1.63224C338.396 0.538587 343.672 1.16224 348.274 3.39479L345.97 14.4833L352.615 6.159C356.189 9.04738 358.701 12.9501 359.785 17.2972C360.869 21.6443 360.467 26.2081 358.639 30.3221H358.665C358.602 30.4629 358.525 30.5967 358.462 30.7376C358.34 30.9982 358.215 31.2552 358.093 31.5123C357.923 31.8398 357.724 32.1602 357.558 32.4771C357.417 32.7166 357.281 32.956 357.129 33.1814C356.912 33.5335 356.675 33.8504 356.439 34.1779C356.299 34.368 356.17 34.5652 356.026 34.7519C355.657 35.2413 355.243 35.7097 354.822 36.1604C354.675 36.3188 354.516 36.4632 354.361 36.6181C354.062 36.921 353.763 37.2203 353.445 37.5055C353.25 37.6816 353.043 37.8576 352.84 38.0196C352.548 38.2661 352.249 38.5056 351.943 38.7239C351.725 38.8894 351.504 39.0478 351.282 39.2028C350.961 39.4246 350.636 39.6324 350.308 39.8401C350.086 39.9775 349.865 40.1148 349.64 40.2451C349.27 40.4599 348.883 40.6571 348.495 40.8507C348.3 40.9458 348.126 41.0515 347.908 41.143C347.325 41.4141 346.727 41.6642 346.118 41.886C346.004 41.9283 345.882 41.9599 345.767 41.9987C345.258 42.1747 344.745 42.3508 344.224 42.4741C343.999 42.5339 343.77 42.5832 343.542 42.636C343.117 42.7346 342.689 42.8262 342.257 42.9037C342.011 42.9459 341.756 42.9846 341.493 43.0199C341.068 43.0797 340.64 43.1255 340.208 43.1607C339.954 43.1818 339.703 43.203 339.444 43.217C338.979 43.2382 338.51 43.2417 338.041 43.2382C338.011 43.2364 337.98 43.2364 337.949 43.2382C337.255 48.4027 336.527 53.5673 335.764 58.7318C337.554 56.4264 339.819 54.4942 342.42 53.0535C345.021 51.6129 347.903 50.6943 350.889 50.354C353.875 50.0138 356.903 50.259 359.786 51.0748C362.67 51.8905 365.348 53.2595 367.657 55.0979L361.869 64.4575L371.175 58.6156C374.693 63.0579 376.22 68.6505 375.42 74.1657C375.147 76.1021 374.588 77.9918 373.759 79.7786C371.982 83.6474 369.028 86.9175 365.279 89.1646C361.53 91.4117 357.16 92.532 352.735 92.3802C348.31 92.2283 344.036 90.8113 340.466 88.313C336.896 85.8148 334.195 82.3506 332.715 78.3701C332.63 78.8912 332.549 79.4265 332.464 79.9406C331.563 85.3457 330.445 92.0749 326.473 97.547C323.782 101.265 320.076 104.012 316.473 106.428C314.13 108.001 311.733 109.499 309.282 110.924C306.71 113.2 303.606 114.859 300.227 115.763C296.29 117.685 292.268 119.424 288.16 120.978L285.595 121.935C283.288 122.795 280.925 123.675 278.581 124.612C278.951 124.643 279.32 124.672 279.689 124.717C284.334 125.326 288.655 127.327 292.03 130.431C295.405 133.536 297.657 137.583 298.463 141.989L282.845 150.127L298.415 149.461C297.792 152.755 296.346 155.857 294.199 158.504C290.679 162.852 285.518 165.716 279.816 166.488C274.115 167.261 268.322 165.879 263.672 162.638L264.447 164.015C264.964 164.923 265.474 165.828 265.968 166.726C272.734 178.959 273.225 189.523 267.352 196.478L262.554 192.798C268.272 186.03 263.735 175.272 260.523 169.462C260.036 168.582 259.534 167.702 259.047 166.8C254.702 159.113 249.774 150.402 251.749 141.13C254.702 127.15 270.593 121.235 283.376 116.481Z" fill="#F2F2F2"/>
<path d="M99.5184 182.758L97.5325 182.015C97.3405 181.945 97.1633 181.864 96.964 181.794C100.639 180.501 103.743 178.054 105.767 174.856C107.791 171.657 108.614 167.897 108.101 164.193C107.589 160.489 105.77 157.062 102.946 154.474C100.121 151.887 96.4569 150.293 92.5566 149.954L93.9408 156.609L88.6917 150.032H88.6438C86.3972 150.324 84.233 151.036 82.275 152.127C80.317 153.218 78.6034 154.666 77.2323 156.389C75.8611 158.111 74.8591 160.075 74.2837 162.167C73.7082 164.259 73.5705 166.439 73.8784 168.582C73.9227 168.895 73.9928 169.194 74.0519 169.501C72.4233 168.333 70.9853 166.941 69.7847 165.37C67.485 162.201 66.6951 158.286 65.8977 153.5C64.3363 144.017 62.9188 134.432 61.6453 124.861C65.5742 123.728 68.9507 121.296 71.1679 118.001C73.3852 114.706 74.2978 110.765 73.7418 106.885C73.668 106.385 73.5683 105.899 73.4502 105.417L73.3616 105.065C73.2361 104.6 73.0995 104.142 72.9371 103.699C72.9113 103.625 72.8781 103.554 72.8485 103.484C72.7046 103.107 72.5458 102.737 72.376 102.375C72.3096 102.241 72.2468 102.103 72.1804 101.97C71.981 101.579 71.7706 101.195 71.5418 100.822C71.4643 100.695 71.3794 100.575 71.3018 100.469C71.121 100.195 70.9327 99.9237 70.7408 99.6631C70.6374 99.5258 70.5377 99.3849 70.4307 99.2511L70.3532 99.1455C67.9054 96.0897 64.4136 93.9476 60.4833 93.0909C56.5531 92.2342 52.4326 92.7168 48.8364 94.4551L50.6377 103.117L45.444 96.6172C42.6532 98.8731 40.6913 101.921 39.8446 105.316C38.9979 108.711 39.3108 112.275 40.7376 115.488H40.7191C40.7671 115.597 40.8262 115.703 40.8779 115.812C40.9738 116.016 41.0698 116.217 41.1732 116.417C41.306 116.671 41.4463 116.921 41.594 117.167C41.701 117.358 41.8081 117.544 41.9262 117.727C42.096 117.991 42.2953 118.248 42.4651 118.506C42.5759 118.653 42.6755 118.808 42.79 118.953C43.0853 119.333 43.399 119.699 43.7276 120.055C43.842 120.178 43.9675 120.291 44.0967 120.407C44.3293 120.643 44.5655 120.875 44.8128 121.111C44.9642 121.252 45.1266 121.382 45.2853 121.513C45.5142 121.708 45.7467 121.894 45.983 122.073C46.1528 122.199 46.3263 122.323 46.4998 122.446C46.7508 122.618 47.0055 122.798 47.2602 122.942C47.4337 123.052 47.6072 123.157 47.7843 123.259C48.076 123.428 48.375 123.58 48.6776 123.731C48.8327 123.809 48.9803 123.89 49.1354 123.964C49.5931 124.175 50.0582 124.368 50.5344 124.541C50.623 124.576 50.719 124.597 50.8076 124.629C51.2025 124.766 51.6049 124.893 52.0146 125.002C52.1881 125.048 52.3838 125.087 52.5462 125.126C52.8784 125.203 53.2106 125.277 53.5502 125.337L54.1445 125.428C54.4767 125.474 54.8126 125.509 55.1486 125.538C55.3479 125.555 55.5435 125.569 55.7466 125.58C56.1157 125.597 56.4848 125.601 56.854 125.597H56.9241C57.4655 129.64 58.034 133.679 58.6295 137.714C57.2339 135.911 55.4668 134.399 53.4366 133.271C51.4063 132.143 49.1559 131.423 46.8232 131.154C44.4906 130.886 42.1251 131.075 39.8719 131.71C37.6187 132.345 35.5253 133.413 33.7204 134.848L38.2016 142.116L30.9371 137.556C29.5745 139.273 28.5797 141.229 28.0097 143.313C27.4397 145.397 27.3055 147.567 27.6149 149.701C27.8292 151.215 28.2679 152.692 28.9179 154.088C30.3055 157.109 32.6129 159.663 35.5407 161.418C38.4685 163.173 41.8815 164.048 45.337 163.929C48.7926 163.811 52.131 162.704 54.9192 160.754C57.7075 158.803 59.8168 156.098 60.9735 152.99C61.0399 153.394 61.1027 153.806 61.1691 154.215C61.8705 158.44 62.7453 163.694 65.8461 167.976C67.9501 170.878 70.8441 173.022 73.6569 174.91C75.4878 176.14 77.3593 177.313 79.2714 178.431C81.2818 180.208 83.7058 181.504 86.344 182.213C89.4152 183.713 92.5603 185.079 95.7717 186.283L97.7724 187.033C99.5738 187.702 101.419 188.389 103.239 189.121C102.951 189.146 102.66 189.167 102.368 189.206C98.7425 189.68 95.3684 191.241 92.733 193.663C90.0977 196.085 88.3374 199.243 87.7062 202.682L99.8876 209.02L87.7283 208.503C88.2636 211.239 89.517 213.801 91.3714 215.95C93.2259 218.099 95.621 219.765 98.333 220.791C101.045 221.818 103.986 222.173 106.88 221.822C109.775 221.471 112.529 220.426 114.885 218.785C114.682 219.137 114.483 219.489 114.28 219.859C113.878 220.563 113.479 221.267 113.091 221.972C107.809 231.525 107.425 239.779 112.014 245.212L115.753 242.339C111.286 237.057 114.83 228.651 117.34 224.113C117.709 223.426 118.112 222.732 118.507 222.035C121.899 216.049 125.745 209.228 124.213 201.985C121.921 191.09 109.5 186.484 99.5184 182.758Z" fill="#F2F2F2"/>
<path d="M31.3764 241.673C30.269 239.733 31.524 237.356 32.9562 235.624C34.3885 233.891 36.1345 232.102 36.0976 229.887C36.0459 226.718 32.517 224.848 29.7005 223.169C27.6107 221.921 25.6828 220.443 23.9568 218.764C23.2353 218.116 22.6382 217.354 22.1923 216.51C21.6091 215.271 21.6275 213.862 21.6645 212.503C21.7875 207.981 22.0213 203.465 22.3658 198.953" stroke="#3F3D56" stroke-width="4" stroke-miterlimit="10"/>
<path d="M17.0208 198.703C17.0606 197.876 17.3182 197.072 17.7698 196.364C18.2214 195.657 18.8525 195.07 19.6047 194.657L20.7638 196.844L20.7305 194.196C21.2833 194.039 21.8599 193.972 22.4359 193.998C23.4559 194.046 24.4382 194.381 25.2588 194.96C26.0795 195.54 26.7017 196.339 27.047 197.256C27.3923 198.172 27.4451 199.166 27.1988 200.111C26.9525 201.057 26.4181 201.911 25.6632 202.567C24.9082 203.223 23.9664 203.651 22.9567 203.797C21.9471 203.942 20.9148 203.8 19.9902 203.386C19.0655 202.973 18.29 202.307 17.7616 201.474C17.2331 200.64 16.9753 199.676 17.0208 198.703Z" fill="#F07178"/>
<path d="M26.2602 232.155C26.775 233.132 27.6159 233.919 28.6507 234.39C29.6854 234.862 30.8551 234.992 31.9756 234.759C33.0962 234.527 34.1039 233.946 34.8401 233.107C35.5763 232.268 35.9992 231.22 36.0422 230.127C36.0791 229.444 35.9646 228.761 35.7063 228.123C35.335 227.179 34.6692 226.367 33.7988 225.795C32.9284 225.223 31.8952 224.92 30.8384 224.926C29.7816 224.931 28.7521 225.246 27.8886 225.827C27.0251 226.408 26.3691 227.228 26.0092 228.176L29.2465 230.687L25.688 229.898C25.686 230.683 25.8823 231.457 26.2602 232.155Z" fill="#F07178"/>
<path d="M28.8183 222.559C30.1092 222.653 31.3897 222.28 32.4066 221.516C33.4235 220.752 34.1025 219.651 34.3095 218.432C34.5165 217.213 34.2362 215.964 33.5242 214.933C32.8122 213.901 31.7204 213.162 30.4646 212.862L30.4904 214.901L29.3166 212.686C27.9435 212.625 26.6012 213.086 25.585 213.969C24.5688 214.852 23.9618 216.084 23.8977 217.394C23.8336 218.704 24.3175 219.984 25.2431 220.953C26.1686 221.923 27.46 222.502 28.833 222.563L28.8183 222.559Z" fill="#F07178"/>
<path d="M16.2419 214.577C16.9205 214.607 17.5988 214.51 18.2381 214.29C18.8773 214.071 19.465 213.733 19.9675 213.297C20.47 212.861 20.8775 212.335 21.1668 211.748C21.456 211.162 21.6214 210.527 21.6534 209.879C21.6854 209.232 21.5834 208.585 21.3532 207.975C21.1231 207.365 20.7693 206.805 20.312 206.325C19.8547 205.846 19.303 205.457 18.6882 205.181C18.0735 204.905 17.4078 204.748 16.7291 204.717C15.7603 204.671 14.7977 204.889 13.9532 205.344L14.8687 207.738L12.9824 206.013C11.9736 206.894 11.3722 208.121 11.3102 209.425C11.2852 209.881 11.33 210.338 11.4431 210.781C11.7008 211.826 12.3088 212.762 13.1749 213.447C14.041 214.132 15.1179 214.529 16.2419 214.577Z" fill="#F07178"/>
<path opacity="0.1" d="M17.7184 200.02C18.9144 200.147 20.0772 200.502 21.2769 200.573C22.4765 200.643 23.7944 200.368 24.5548 199.481C24.9645 198.999 25.1675 198.393 25.5108 197.872C25.8396 197.385 26.2882 196.983 26.8176 196.699C27.1301 197.323 27.3019 198.002 27.3216 198.692C27.3414 199.383 27.2087 200.07 26.9322 200.708C26.6558 201.347 26.2416 201.923 25.7168 202.399C25.1919 202.875 24.5679 203.241 23.8854 203.472C23.2028 203.703 22.4769 203.795 21.7548 203.742C21.0327 203.688 20.3304 203.49 19.6936 203.161C19.0568 202.832 18.4996 202.379 18.0582 201.831C17.6168 201.283 17.3011 200.653 17.1315 199.981C17.3271 199.988 17.5228 200.002 17.7184 200.02Z" fill="black"/>
<path opacity="0.1" d="M16.2419 214.577C17.1354 214.62 18.0253 214.441 18.8247 214.058C19.624 213.675 20.3053 213.1 20.802 212.39C21.2987 211.68 21.5937 210.86 21.6582 210.008C21.7227 209.157 21.5544 208.305 21.1698 207.534C20.7586 207.799 20.4051 208.137 20.1289 208.531C19.7597 209.062 19.5346 209.675 19.1027 210.165C18.2943 211.07 16.9174 211.365 15.666 211.309C14.4147 211.253 13.2076 210.918 11.9747 210.809C11.8012 210.809 11.6277 210.781 11.4542 210.777C11.7106 211.821 12.3167 212.757 13.1807 213.442C14.0446 214.128 15.1193 214.526 16.2419 214.577Z" fill="black"/>
<path opacity="0.1" d="M28.8183 222.56C29.7037 222.603 30.586 222.428 31.3803 222.052C32.1745 221.676 32.854 221.112 33.3535 220.413C33.8529 219.714 34.1554 218.905 34.2319 218.062C34.3085 217.219 34.1564 216.372 33.7905 215.602C33.3601 215.869 32.9847 216.209 32.6831 216.605C32.2807 217.147 32.0297 217.771 31.5757 218.271C30.7045 219.2 29.2354 219.528 27.9102 219.496C26.585 219.464 25.3927 219.169 24.1155 219.077C24.4272 220.049 25.0465 220.906 25.8884 221.529C26.7302 222.153 27.7536 222.513 28.8183 222.56Z" fill="black"/>
<path opacity="0.1" d="M26.2602 232.155C26.775 233.132 27.6159 233.919 28.6507 234.39C29.6854 234.862 30.8551 234.991 31.9756 234.759C33.0962 234.527 34.1039 233.946 34.8401 233.107C35.5763 232.268 35.9992 231.22 36.0422 230.127C36.0791 229.444 35.9646 228.761 35.7063 228.123C35.2795 228.389 34.8963 228.715 34.5694 229.088C34.0747 229.662 33.7536 230.31 33.1814 230.849C32.122 231.842 30.4129 232.257 28.8921 232.289C28.0128 232.292 27.1341 232.248 26.2602 232.155Z" fill="black"/>
<path d="M39.1983 239.441C39.1983 239.441 35.1083 239.321 33.8791 238.483C32.6499 237.645 27.6038 236.645 27.2827 237.99C26.9615 239.335 21.1366 244.68 25.7544 244.701C30.3723 244.723 36.4815 243.997 37.7107 243.293C38.9399 242.589 39.1983 239.441 39.1983 239.441Z" fill="#656380"/>
<path opacity="0.2" d="M25.6695 244.233C30.2874 244.268 36.3966 243.529 37.6295 242.825C38.5634 242.282 38.9362 240.328 39.0617 239.427H39.1983C39.1983 239.427 38.9399 242.571 37.7218 243.3C36.5036 244.029 30.3797 244.737 25.7655 244.708C24.433 244.708 23.9715 244.247 23.9974 243.575C24.1709 243.973 24.6803 244.233 25.6695 244.233Z" fill="black"/>
<path d="M275.215 116.607C272.774 115.809 270.313 115.07 267.832 114.389C268.241 112.795 268.621 111.193 268.973 109.582C274.562 83.6975 270.907 62.8444 258.427 55.9814C246.459 49.3966 226.888 56.2631 207.117 72.6688C205.168 74.2933 203.265 75.9601 201.407 77.6691C200.159 76.5305 198.892 75.4143 197.605 74.3203C176.892 56.7737 156.143 49.3825 143.659 56.2667C131.703 62.8691 128.156 82.4721 133.194 107.005C133.687 109.435 134.251 111.85 134.889 114.252C131.954 115.048 129.116 115.896 126.399 116.801C102.113 124.861 86.6024 137.538 86.6024 150.669C86.6024 164.229 103.254 177.832 128.551 186.079C130.603 186.743 132.67 187.361 134.752 187.931C134.078 190.513 133.477 193.117 132.951 195.741C128.152 219.848 131.902 238.99 143.826 245.55C156.143 252.332 176.815 245.36 196.94 228.577C198.531 227.25 200.126 225.841 201.739 224.369C203.752 226.222 205.818 228.02 207.937 229.764C227.434 245.768 246.696 252.233 258.604 245.652C270.907 238.86 274.905 218.295 269.715 193.28C269.321 191.369 268.862 189.419 268.338 187.431C269.792 187.023 271.215 186.599 272.605 186.16C298.902 177.85 316.015 164.412 316.015 150.669C316.015 137.489 300.002 124.745 275.226 116.607H275.215Z" fill="#53C1DE"/>
<path d="M269.512 177.286C268.257 177.684 266.972 178.065 265.658 178.438C262.452 168.955 258.571 159.693 254.041 150.715C258.398 141.856 262.128 132.73 265.208 123.397C267.552 124.044 269.833 124.728 272.026 125.449C293.254 132.418 306.204 142.725 306.204 150.669C306.204 159.12 292.217 170.11 269.512 177.286ZM260.092 195.097C262.388 206.157 262.712 216.158 261.199 223.972C259.833 230.997 257.087 235.68 253.691 237.557C246.459 241.546 231 236.359 214.326 222.672C212.414 221.102 210.491 219.429 208.557 217.654C215.508 210.313 221.932 202.532 227.785 194.365C238.239 193.52 248.62 191.99 258.855 189.787C259.322 191.59 259.737 193.35 260.099 195.069L260.092 195.097ZM164.811 236.874C157.746 239.254 152.12 239.321 148.72 237.451C141.485 233.469 138.477 218.084 142.582 197.484C143.074 195.05 143.631 192.629 144.254 190.22C154.446 192.308 164.774 193.735 175.169 194.491C181.192 202.63 187.771 210.382 194.862 217.697C193.437 219.014 191.98 220.294 190.491 221.538C181.592 228.961 172.67 234.215 164.811 236.874ZM131.722 177.234C120.533 173.585 111.297 168.846 104.963 163.677C99.2748 159.028 96.4029 154.412 96.4029 150.669C96.4029 142.7 108.857 132.534 129.625 125.629C132.233 124.763 134.865 123.973 137.521 123.259C140.605 132.696 144.341 141.928 148.702 150.894C144.286 159.99 140.505 169.353 137.384 178.924C135.479 178.405 133.592 177.842 131.722 177.234ZM142.814 105.209C138.503 84.1905 141.363 68.3342 148.569 64.3622C156.243 60.1366 173.212 66.1651 191.1 81.3172C192.245 82.2855 193.393 83.2996 194.541 84.3455C187.501 91.6156 180.974 99.323 175.003 107.417C164.706 108.298 154.481 109.814 144.39 111.956C143.802 109.721 143.277 107.473 142.814 105.213V105.209ZM241.782 128.517C239.541 124.822 237.216 121.173 234.81 117.572C242.129 118.456 249.139 119.625 255.725 121.062C253.611 127.457 251.161 133.745 248.383 139.904C246.264 136.066 244.064 132.27 241.782 128.517ZM201.414 91.0254C206.185 95.9868 210.69 101.174 214.913 106.568C205.879 106.162 196.842 106.162 187.8 106.568C192.256 100.962 196.822 95.7509 201.414 91.0289V91.0254ZM160.809 128.58C158.558 132.305 156.398 136.078 154.331 139.897C151.478 133.443 149.038 127.094 147.044 120.963C153.589 119.555 160.569 118.424 167.841 117.555C165.4 121.179 163.054 124.854 160.802 128.58H160.809ZM168.048 184.445C160.95 183.71 153.897 182.628 146.915 181.202C148.942 174.966 151.437 168.48 154.353 161.884C156.428 165.708 158.595 169.483 160.854 173.209C163.152 177.009 165.548 180.755 168.041 184.445H168.048ZM201.691 210.971C197.04 206.203 192.407 200.921 187.889 195.213C192.282 195.38 196.756 195.463 201.311 195.463C205.986 195.463 210.602 195.365 215.157 195.167C210.952 200.652 206.455 205.926 201.684 210.971H201.691ZM248.456 161.55C251.379 167.833 253.956 174.258 256.179 180.797C249.111 182.314 241.964 183.477 234.769 184.28C237.193 180.61 239.541 176.898 241.812 173.142C244.12 169.325 246.335 165.461 248.456 161.55ZM233.322 168.473C229.847 174.229 226.179 179.875 222.318 185.41C215.511 185.875 208.479 186.114 201.311 186.114C194.142 186.114 187.228 185.903 180.54 185.487C176.58 179.971 172.841 174.317 169.322 168.525C165.802 162.734 162.541 156.856 159.536 150.891C162.555 144.898 165.807 139.017 169.292 133.249C172.772 127.484 176.479 121.85 180.414 116.347C187.239 115.854 194.231 115.597 201.303 115.597C208.376 115.597 215.412 115.857 222.229 116.35C226.12 121.837 229.811 127.448 233.303 133.186C236.796 138.923 240.092 144.777 243.193 150.746C240.129 156.761 236.842 162.665 233.333 168.458L233.322 168.473ZM253.539 64.0805C261.221 68.306 264.207 85.349 259.383 107.699C259.065 109.152 258.721 110.601 258.349 112.047C248.244 109.862 237.997 108.318 227.678 107.424C221.764 99.3228 215.286 91.6102 208.287 84.3384C210.01 82.7562 211.768 81.2174 213.562 79.722C230.498 65.6615 246.327 60.112 253.539 64.0805Z" fill="white"/>
<path d="M201.303 131.126C205.355 131.126 209.316 132.272 212.685 134.419C216.054 136.567 218.68 139.619 220.231 143.19C221.781 146.761 222.187 150.691 221.397 154.482C220.606 158.273 218.655 161.755 215.79 164.488C212.925 167.221 209.274 169.082 205.3 169.836C201.326 170.591 197.207 170.204 193.463 168.724C189.72 167.245 186.52 164.74 184.269 161.526C182.018 158.313 180.816 154.534 180.816 150.669C180.816 148.102 181.345 145.561 182.375 143.189C183.404 140.818 184.913 138.664 186.816 136.849C188.718 135.034 190.977 133.594 193.463 132.612C195.949 131.63 198.613 131.125 201.303 131.126Z" fill="#53C1DE"/>
<path d="M119.23 15.0923L112.493 19.1664L116.583 12.071C115.429 11.1907 114.001 10.7025 112.523 10.6836H112.412C111.945 10.6899 111.478 10.6569 111.017 10.585L108.732 11.9654L109.71 10.2681C108.093 9.72914 106.696 8.71752 105.716 7.37714L101.63 9.84204L104.214 5.36296C101.822 2.62692 98.603 0.947266 95.0556 0.947266C90.8069 0.947266 87.0232 3.35935 84.5796 7.11657C83.8568 8.23996 82.8357 9.16121 81.6196 9.787C80.4036 10.4128 79.0357 10.7209 77.6546 10.6801H77.4258C72.7341 10.6801 68.9357 15.7543 68.9357 22.0151C68.9357 28.276 72.7378 33.3466 77.4258 33.3466C78.4554 33.3438 79.4689 33.1021 80.3788 32.6424C83.439 31.1247 87.4551 31.0965 90.6592 32.4522C92.0329 33.0416 93.5215 33.3479 95.0278 33.3509C96.534 33.3539 98.024 33.0537 99.4003 32.4698C102.582 31.1423 106.55 31.1705 109.592 32.66C110.494 33.1155 111.498 33.357 112.519 33.3643C117.211 33.3643 121.009 28.2901 121.009 22.0327C121.037 19.6133 120.426 17.2263 119.23 15.0923Z" fill="#F2F2F2"/>
<path opacity="0.03" d="M106.528 31.674C104.077 31.2294 101.543 31.4917 99.249 32.4275C97.8732 33.0109 96.3839 33.3108 94.8783 33.3078C93.3727 33.3048 91.8848 32.9988 90.5116 32.4099C87.3038 31.0542 83.2876 31.0824 80.2275 32.6001C79.3176 33.0598 78.3041 33.3015 77.2744 33.3043C73.1069 33.3043 69.6407 29.2971 68.9172 24.0152C69.7498 23.4366 70.4568 22.7096 70.9992 21.8742C73.4576 18.1205 77.2264 15.7014 81.4752 15.7014C85.7239 15.7014 89.4632 18.0853 91.9069 21.8003C92.6361 22.9227 93.6567 23.8466 94.8698 24.4826C96.083 25.1186 97.4476 25.4452 98.8318 25.4307H98.9278C102.25 25.4343 105.129 27.9731 106.528 31.674Z" fill="black"/>
<path d="M295.333 23.3884L291.985 25.4202L294.026 21.8989C293.449 21.4542 292.733 21.2063 291.992 21.1946H291.94C291.707 21.1977 291.473 21.1812 291.243 21.1453L290.102 21.8496L290.582 20.9833C289.775 20.7152 289.078 20.2113 288.589 19.5431L286.551 20.7756L287.839 18.5431C287.297 17.8757 286.606 17.3317 285.816 16.9504C285.027 16.5692 284.158 16.3602 283.273 16.3387C281.151 16.3387 279.264 17.543 278.046 19.4164C277.684 19.9743 277.174 20.4311 276.567 20.7403C275.96 21.0495 275.279 21.2001 274.591 21.177H274.477C272.136 21.177 270.239 23.7088 270.239 26.8111C270.239 29.9133 272.136 32.4627 274.477 32.4627C274.991 32.461 275.498 32.3402 275.953 32.1106C276.75 31.7415 277.621 31.5418 278.506 31.5254C279.391 31.5089 280.27 31.6762 281.08 32.0155C281.767 32.3069 282.509 32.4574 283.26 32.4574C284.011 32.4574 284.754 32.3069 285.44 32.0155C286.245 31.683 287.115 31.5194 287.992 31.5358C288.869 31.5522 289.732 31.7482 290.523 32.1106C290.978 32.3403 291.485 32.4612 291.999 32.4627C294.34 32.4627 296.237 29.9344 296.237 26.8111C296.241 25.6159 295.93 24.4391 295.333 23.3884Z" fill="#F2F2F2"/>
<path opacity="0.03" d="M289.002 31.6599C287.78 31.4397 286.517 31.5709 285.373 32.0367C284.687 32.328 283.945 32.4786 283.194 32.4786C282.443 32.4786 281.7 32.328 281.014 32.0367C280.203 31.6973 279.323 31.53 278.438 31.5464C277.552 31.5628 276.68 31.7625 275.883 32.1317C275.428 32.3623 274.921 32.4832 274.407 32.4839C272.325 32.4839 270.597 30.4873 270.235 27.8534C270.649 27.5673 271.003 27.2088 271.276 26.797C272.494 24.9237 274.384 23.7229 276.503 23.7229C278.622 23.7229 280.486 24.9096 281.704 26.7618C282.068 27.322 282.577 27.7831 283.182 28.1003C283.788 28.4174 284.469 28.5798 285.159 28.5717H285.215C286.872 28.5471 288.293 29.8147 289.002 31.6599Z" fill="black"/>
<path d="M75.4288 76.0105L80.8403 79.2782L77.5624 73.5913C78.4918 72.8856 79.6413 72.4953 80.8292 72.4821H80.9141C81.2849 72.4874 81.6555 72.4615 82.0215 72.4047L83.8487 73.5104L83.0551 72.1511C84.3495 71.7169 85.4688 70.9066 86.2555 69.8341L89.5297 71.8131L87.4847 68.2249C89.4005 66.0347 91.9807 64.7036 94.8193 64.7036C98.2265 64.7036 101.257 66.6333 103.217 69.6334C103.795 70.5324 104.611 71.27 105.583 71.7714C106.555 72.2729 107.649 72.5205 108.754 72.4892H108.939C112.696 72.4892 115.742 76.5527 115.742 81.5671C115.742 86.5814 112.696 90.6485 108.939 90.6485C108.111 90.6454 107.297 90.4509 106.565 90.0815C105.286 89.4886 103.887 89.168 102.465 89.1419C101.043 89.1157 99.632 89.3847 98.3298 89.9301C97.2265 90.4006 96.0316 90.6437 94.823 90.6437C93.6145 90.6437 92.4196 90.4006 91.3163 89.9301C90.0233 89.3959 88.6252 89.1329 87.2164 89.159C85.8076 89.1851 84.4212 89.4997 83.151 90.0815C82.4269 90.4411 81.6234 90.6306 80.807 90.6344C77.0456 90.6344 74.0002 86.5708 74.0002 81.553C73.9825 79.6205 74.4737 77.7148 75.4288 76.0105Z" fill="#F2F2F2"/>
<path opacity="0.03" d="M85.5984 89.2964C87.5625 88.9433 89.5922 89.1541 91.4307 89.9021C92.534 90.3725 93.7289 90.6157 94.9375 90.6157C96.146 90.6157 97.3409 90.3725 98.4442 89.9021C99.7471 89.3566 101.159 89.0876 102.581 89.1137C104.004 89.1399 105.403 89.4605 106.683 90.0535C107.413 90.4228 108.227 90.6173 109.053 90.6204C112.394 90.6204 115.17 87.4125 115.749 83.1799C115.083 82.7146 114.516 82.1311 114.081 81.4615C112.121 78.4544 109.09 76.5317 105.683 76.5317C102.276 76.5317 99.2859 78.4403 97.3258 81.4193C96.7425 82.3168 95.9265 83.0556 94.9566 83.5645C93.9867 84.0734 92.8956 84.3351 91.7888 84.3244H91.7039C89.0239 84.2997 86.7206 86.335 85.5984 89.2964Z" fill="black"/>
<path d="M352.759 217.722C353.654 218.198 354.599 218.584 355.578 218.874C357.329 219.331 359.2 219.163 360.968 219.553C361.692 219.713 362.48 220.047 362.711 220.721C362.88 221.216 362.696 221.75 362.52 222.243C360.566 227.712 359.388 233.52 356.272 238.474C354.962 240.555 353.337 242.439 351.448 244.065C350.74 244.675 349.937 245.271 348.988 245.367C348.551 245.411 348.11 245.344 347.708 245.173C347.307 245.002 346.96 244.733 346.702 244.393C346.444 244.053 346.285 243.655 346.24 243.237C346.196 242.82 346.267 242.398 346.448 242.016C346.727 241.423 347.246 240.964 347.581 240.398C347.945 239.677 348.158 238.896 348.209 238.097C348.516 235.758 348.813 233.313 347.964 231.099C347.395 229.614 346.35 228.348 345.48 227.002C344.61 225.657 343.887 224.115 344.08 222.545C344.212 221.473 344.76 220.492 345.338 219.565C345.918 218.636 347.064 216.139 348.228 215.829C349.437 215.508 351.705 217.206 352.759 217.722Z" fill="#2F2E41"/>
<path d="M320.894 236.615C320.876 237.145 320.953 237.673 321.123 238.177C321.487 239.096 322.392 239.726 322.859 240.601C323.509 241.819 323.214 243.292 322.784 244.595C322.514 245.412 322.16 246.263 321.435 246.768C320.815 247.135 320.11 247.35 319.383 247.396C313.165 248.217 306.849 247.746 300.575 247.918C299.431 247.949 298.221 247.988 297.222 247.454C296.224 246.921 295.607 245.579 296.286 244.7C296.896 243.911 298.101 243.918 299.127 243.872C301.799 243.742 304.344 242.741 306.336 241.036C306.729 240.716 307.07 240.341 307.348 239.925C307.561 239.556 307.738 239.168 307.877 238.767C308.756 236.493 309.802 234.28 311.008 232.146C311.345 231.549 311.727 230.927 312.354 230.607C312.813 230.408 313.311 230.304 313.816 230.303C315.379 230.206 319.429 229.698 320.638 230.859C321.755 231.931 320.869 235.253 320.894 236.615Z" fill="#2F2E41"/>
<path d="M311.271 104.049C305.755 104.049 301.283 99.7792 301.283 94.5127C301.283 89.2462 305.755 84.9768 311.271 84.9768C316.788 84.9768 321.26 89.2462 321.26 94.5127C321.26 99.7792 316.788 104.049 311.271 104.049Z" fill="#FFB9B9"/>
<path d="M320.291 102.387C320.885 103.905 321.893 105.331 323.359 106.149L309.545 108.839C310.046 106.914 310.112 104.909 309.738 102.958C309.601 102.486 309.573 101.991 309.656 101.507C309.915 100.55 311.044 100.09 312.053 99.8698C314.575 99.3211 316.804 99.0269 319.147 97.9637C319.863 99.1342 319.763 101.037 320.291 102.387Z" fill="#FBBEBE"/>
<path d="M323.475 102.578C321.989 101.936 320.369 101.623 318.739 101.664C317.108 101.705 315.508 102.098 314.059 102.813C312.288 103.704 310.822 105.049 309.381 106.376C308.053 107.599 306.636 109 306.542 110.759C306.496 111.612 306.775 112.445 306.915 113.288C307.168 115.031 306.847 116.806 305.996 118.367C305.145 119.928 303.806 121.197 302.165 121.999C301.068 123.745 300.841 125.859 300.824 127.895C300.761 135.608 303.31 143.416 301.49 150.931C301.063 152.696 300.4 154.405 300.031 156.181C299.553 158.482 299.576 160.847 299.326 163.181C299.055 165.708 298.463 168.194 297.564 170.584C298.165 171.497 299.416 171.847 300.543 171.773C301.67 171.699 302.723 171.233 303.729 170.741C308.597 168.363 313.057 165.226 318.099 163.205C321.435 161.868 324.989 161.035 328.226 159.49C331.462 157.945 334.472 155.494 335.462 152.171C335.89 150.734 335.916 149.221 335.939 147.727C336.038 141.437 336.129 135.077 334.695 128.937C333.43 123.522 330.992 118.342 330.46 112.817C330.287 111.019 330.283 109.094 329.231 107.593C327.743 105.472 324.531 104.923 323.475 102.578Z" fill="#2F2E41"/>
<path d="M316.952 94.6472C316.364 93.9143 315.229 93.8144 314.288 94.0312C313.348 94.248 312.481 94.7106 311.531 94.8864C311.316 94.9449 311.089 94.9597 310.867 94.9299C310.645 94.9001 310.432 94.8264 310.241 94.7134C309.909 94.4013 309.711 93.9824 309.684 93.5384C309.351 91.6489 309.274 89.7266 309.453 87.8183C309.502 87.5506 309.483 87.2754 309.398 87.0161C309.163 86.4753 308.446 86.3465 307.86 86.173C306.893 85.8611 306.063 85.2507 305.501 84.4382C304.938 83.6257 304.675 82.6574 304.753 81.6863C304.768 81.2205 304.973 80.7786 305.324 80.4552C305.729 80.14 306.296 80.1207 306.819 80.1167C309.504 80.0961 312.189 80.0967 314.874 80.1185C315.868 80.1266 316.911 80.15 317.773 80.623C318.41 80.9727 318.883 81.5356 319.455 81.9761C320.946 83.1251 322.964 83.3588 324.778 83.9477C325.664 84.1885 326.468 84.6464 327.111 85.2759C327.714 85.934 328.004 86.9126 327.626 87.7088C327.431 88.0407 327.214 88.36 326.975 88.6645C325.905 90.2983 326.617 92.4174 326.458 94.3383C326.258 96.7369 322.54 100.628 320.019 101.196C315.948 102.112 318.3 96.2217 316.952 94.6472Z" fill="#ECCD80"/>
<path d="M322.591 199.815C322.334 201.567 322.005 203.324 322.093 205.09C322.216 207.557 323.147 209.933 323.32 212.396C323.448 214.236 323.151 216.096 323.418 217.923C323.59 219.092 323.989 220.219 324.236 221.376C324.628 223.262 324.617 225.203 324.204 227.084C323.791 228.965 322.984 230.748 321.833 232.324C321.663 232.594 321.423 232.817 321.135 232.97C320.859 233.067 320.564 233.104 320.271 233.079C317.363 233.022 314.464 232.771 311.594 232.326C311.384 232.318 311.185 232.234 311.037 232.091C310.972 231.997 310.931 231.889 310.916 231.777C310.384 229.165 311.597 226.547 311.906 223.902C312.235 221.079 311.526 218.249 310.821 215.489C310.502 214.127 310.103 212.783 309.626 211.464C309.285 210.577 308.874 209.713 308.579 208.811C308.161 207.393 307.907 205.936 307.82 204.466C307.615 202.146 307.507 199.82 307.494 197.489C307.425 195.28 307.617 193.071 308.068 190.904C308.716 188.159 310.041 185.611 311.356 183.094C312.058 183.255 312.718 183.554 313.292 183.972C314.986 185.02 316.754 185.952 318.584 186.764C319.813 187.309 322.211 187.696 322.991 188.832C323.761 189.953 323.264 192.239 323.205 193.475C323.105 195.596 322.9 197.709 322.591 199.815Z" fill="#2F2E41"/>
<path opacity="0.1" d="M322.591 199.815C322.334 201.567 322.005 203.324 322.093 205.09C322.216 207.557 323.147 209.933 323.32 212.396C323.448 214.236 323.151 216.096 323.418 217.923C323.59 219.092 323.989 220.219 324.236 221.376C324.628 223.262 324.617 225.203 324.204 227.084C323.791 228.965 322.984 230.748 321.833 232.324C321.663 232.594 321.423 232.817 321.135 232.97C320.859 233.067 320.564 233.104 320.271 233.079C317.363 233.022 314.464 232.771 311.594 232.326C311.384 232.318 311.185 232.234 311.037 232.091C310.972 231.997 310.931 231.889 310.916 231.777C310.384 229.165 311.597 226.547 311.906 223.902C312.235 221.079 311.526 218.249 310.821 215.489C310.502 214.127 310.103 212.783 309.626 211.464C309.285 210.577 308.874 209.713 308.579 208.811C308.161 207.393 307.907 205.936 307.82 204.466C307.615 202.146 307.507 199.82 307.494 197.489C307.425 195.28 307.617 193.071 308.068 190.904C308.716 188.159 310.041 185.611 311.356 183.094C312.058 183.255 312.718 183.554 313.292 183.972C314.986 185.02 316.754 185.952 318.584 186.764C319.813 187.309 322.211 187.696 322.991 188.832C323.761 189.953 323.264 192.239 323.205 193.475C323.105 195.596 322.9 197.709 322.591 199.815Z" fill="black"/>
<path d="M336.095 162.407C337.421 165.816 335.472 169.501 333.778 172.758C329.604 180.784 326.706 189.348 323.824 197.875C323.608 198.514 323.392 199.211 323.633 199.841C323.841 200.289 324.178 200.671 324.606 200.943C326.593 202.384 329.124 202.897 331.491 203.651C333.78 204.38 335.971 205.361 338.021 206.574C339.737 207.589 341.344 208.76 342.948 209.93L348.054 213.653C348.385 213.866 348.674 214.133 348.908 214.442C349.4 215.179 349.198 216.142 348.953 216.985C348.304 219.217 347.468 221.395 346.453 223.499C346.286 223.96 345.968 224.358 345.547 224.633C344.75 225.042 343.775 224.5 343.166 223.861C342.558 223.221 342.031 222.426 341.173 222.152C340.317 221.878 339.373 222.209 338.478 222.09C337.031 221.896 336.07 220.623 335.027 219.645C330.764 215.653 323.648 215.942 318.959 212.412C318.281 211.833 317.563 211.298 316.811 210.811C316.018 210.363 315.119 210.118 314.296 209.722C311.795 208.52 310.222 206.033 309.38 203.483C308.537 200.933 308.297 198.241 307.692 195.631C307.379 194.281 306.967 192.946 306.828 191.57C306.738 190.29 306.767 189.005 306.915 187.73L308.607 167.748C308.745 166.121 308.883 164.493 309.15 162.881C314.175 163.052 319.196 163.245 324.224 163.302C328.225 163.347 332.299 163.614 336.095 162.407Z" fill="#2F2E41"/>
<path d="M337.942 167.082C337.26 168.128 335.601 168.107 334.459 167.533C333.317 166.959 332.429 165.995 331.284 165.426C329.745 164.662 327.924 164.69 326.19 164.737C323.445 164.811 320.666 164.89 318.025 165.608C315.293 166.351 312.633 167.781 309.809 167.496C309.317 167.446 308.78 167.312 308.512 166.915C308.355 166.628 308.282 166.305 308.298 165.982L308.206 163.626C308.15 163.218 308.218 162.804 308.403 162.432C308.64 162.123 308.965 161.886 309.339 161.748C313.359 159.89 317.945 159.544 322.409 159.398C324.678 159.324 326.949 159.293 329.22 159.306C331.147 159.317 333.461 159.051 335.335 159.543C337.85 160.203 339.218 165.123 337.942 167.082Z" fill="#2F2E41"/>
<path d="M312.696 105.375C317.964 105.33 322.738 102.011 328.006 101.93C328.642 101.888 329.28 101.993 329.865 102.236C330.599 102.589 331.081 103.272 331.639 103.848C333.196 105.458 335.452 106.318 337.052 107.89C338.552 109.364 339.387 111.559 338.794 113.535C338.202 115.511 335.966 117.026 333.872 116.551C333.028 113.944 331.287 111.685 328.93 110.141C327.703 109.39 326.411 108.742 325.067 108.205C322.7 107.181 320.052 106.137 317.58 106.905C316.669 107.233 315.809 107.681 315.026 108.234L310.906 110.877C311.386 109.069 311.817 107.041 312.696 105.375Z" fill="#F07178"/>
<path d="M334.479 114.803C335.178 115.637 334.171 116.844 334.325 117.901C334.427 118.604 335.033 119.141 335.285 119.808C335.547 120.499 335.408 121.265 335.507 121.994C335.607 122.524 335.754 123.044 335.947 123.55C336.391 125.061 336.7 126.606 336.873 128.166L337.795 134.74C337.955 135.73 338.052 136.728 338.086 137.728C338.04 138.476 338.092 139.226 338.242 139.962C338.447 140.68 338.899 141.309 339.203 141.994C339.507 142.68 339.648 143.509 339.237 144.141C340.613 145.235 341.022 147.384 340.06 148.826C339.877 149.051 339.734 149.303 339.636 149.572C339.583 149.948 339.648 150.33 339.823 150.671L340.755 153.043C340.994 153.65 341.069 154.574 340.406 154.713C340.955 155.258 341.384 155.903 341.664 156.611C341.801 156.966 341.841 157.348 341.783 157.722C341.724 158.096 341.568 158.45 341.329 158.752C341.098 158.946 340.9 159.174 340.745 159.428C340.654 159.783 340.677 160.155 340.813 160.496C340.952 161.014 340.979 161.554 340.892 162.082C340.804 162.61 340.605 163.116 340.305 163.568C339.994 164.013 339.554 164.363 339.039 164.574C338.524 164.785 337.955 164.848 337.403 164.755C335.538 164.354 333.862 163.72 331.981 164.049C327.932 164.758 323.87 165.471 319.948 166.666C315.472 168.03 311.138 170.031 306.461 170.451C306.153 170.511 305.833 170.464 305.559 170.317C305.32 170.101 305.172 169.81 305.141 169.498C304.659 167.341 304.178 165.184 303.696 163.026C303.113 160.635 302.669 158.215 302.367 155.777C302.202 154.203 302.155 152.621 302.108 151.04L301.736 138.458C301.561 136.604 301.82 134.736 302.494 132.988L304.637 126.456C305.861 122.728 308.666 119.423 309.665 115.634C310.298 113.237 310.765 110.664 312.46 108.795C314.878 106.131 319.06 105.717 322.721 106.175C324.374 106.382 326.042 106.739 327.473 107.558C329.127 108.504 330.345 109.996 331.524 111.453C332.496 112.654 333.485 113.619 334.479 114.803Z" fill="#F07178"/>
<path d="M325.931 151.812C325.63 153.053 324.996 154.198 324.609 155.418C323.959 157.461 324.014 159.662 323.366 161.705C323.094 162.563 322.7 163.387 322.504 164.263C322.049 166.307 322.714 168.422 323.54 170.357C324.366 172.292 325.371 174.2 325.639 176.274C325.828 177.735 325.557 179.384 324.378 180.332C323.153 181.317 321.374 181.25 319.779 181.119C319.207 181.104 318.642 180.991 318.111 180.787C316.891 180.236 316.377 178.859 316.092 177.6C315.137 173.381 315.41 169.008 315.688 164.7L316.414 153.433C316.553 151.264 316.703 149.05 317.403 146.967C317.658 146.21 318.102 144.679 318.827 144.195C319.545 143.716 321.595 143.694 322.484 143.655C326.654 143.468 326.607 149.025 325.931 151.812Z" fill="#FFB9B9"/>
<path d="M321.311 110.212C322.162 109.787 323.235 109.97 324.059 110.444C324.854 110.964 325.55 111.609 326.117 112.352C327.958 114.497 329.906 116.958 329.633 119.718C329.531 120.753 329.116 121.733 328.834 122.737C327.6 127.141 328.965 131.798 328.808 136.353C328.718 138.986 328.118 141.575 327.52 144.146C327.398 144.671 327.203 145.279 326.671 145.455C326.272 145.588 325.84 145.418 325.445 145.274C323.972 144.754 322.39 144.581 320.832 144.768C319.274 144.956 317.787 145.499 316.495 146.351C315.507 145.848 315.878 144.257 316.099 143.209C316.757 140.097 315.864 136.886 314.779 133.884C313.695 130.882 312.397 127.884 312.217 124.713C312.014 121.121 313.261 117.614 314.492 114.214C314.761 113.472 315.055 112.693 315.678 112.181C316.211 111.802 316.822 111.535 317.471 111.398C318.779 111.029 320.103 110.816 321.311 110.212Z" fill="#2F2E41"/>
</svg>
