<svg width="789" height="719" viewBox="0 0 789 719" fill="none" xmlns="http://www.w3.org/2000/svg">
<g clip-path="url(#clip0)">
<path d="M125 410L0 268L374 0L748 268L621 410H125Z" fill="#F07178"/>
<path d="M125 410L0 268L374 0L748 268L621 410H125Z" fill="#F07178"/>
<path opacity="0.1" d="M127 410L2 268L376 0L750 268L623 410H127Z" fill="black"/>
<path d="M730 286H0V605H730V286Z" fill="#F07178"/>
<path d="M730 286H0V605H730V286Z" fill="url(#paint0_linear)"/>
<path d="M748 719H0V268L374 494L748 268V719Z" fill="#F07178"/>
<path d="M652.582 116.818L573.252 55.99L363.113 330.042L246.402 240.55L185.573 319.879L341.938 439.598L382.036 469.649L652.582 116.818Z" fill="#3AD29F"/>
<path d="M3.15296 166.882L0.178955 168.334L0.520955 167.726L0.259955 167.81L0.625955 167.539L40.653 96.307L61.114 113.753L78.667 130.004L73.627 132.465L79.293 142.459L3.15296 166.882Z" fill="url(#paint1_linear)"/>
<path d="M59.0869 115.617L75.1309 130.493L2.41089 166.646L41.1099 117.046L59.0869 115.617Z" fill="#F07178"/>
<path opacity="0.2" d="M59.0869 115.617L75.1309 130.493L2.41089 166.646L41.1099 117.046L59.0869 115.617Z" fill="black"/>
<path d="M40.3729 99.66L2.41089 166.646L59.0869 115.617L40.3729 99.66Z" fill="#F07178"/>
<path d="M75.599 142.01L2.48901 166.16L63.604 120.539L75.599 142.01Z" fill="#F07178"/>
<path d="M686.959 38.73L670.942 66.499L788.382 85.622L712.742 32.949L686.959 38.73Z" fill="#F07178"/>
<path opacity="0.2" d="M686.959 38.73L670.942 66.499L788.382 85.622L712.742 32.949L686.959 38.73Z" fill="black"/>
<path d="M706.247 8.293L788.382 85.622L686.959 38.73L706.247 8.293Z" fill="#F07178"/>
<path d="M675.274 82.821L788.062 84.976L682.769 47.576L675.274 82.821Z" fill="#F07178"/>
</g>
<defs>
<linearGradient id="paint0_linear" x1="365" y1="605" x2="365" y2="286" gradientUnits="userSpaceOnUse">
<stop stop-opacity="0.12"/>
<stop offset="0.55135" stop-opacity="0.09"/>
<stop offset="1" stop-opacity="0.02"/>
</linearGradient>
<linearGradient id="paint1_linear" x1="59.5176" y1="165.66" x2="14.3571" y2="127.155" gradientUnits="userSpaceOnUse">
<stop stop-color="#808080" stop-opacity="0.25"/>
<stop offset="0.53514" stop-color="#808080" stop-opacity="0.12"/>
<stop offset="1" stop-color="#808080" stop-opacity="0.1"/>
</linearGradient>
<clipPath id="clip0">
<rect width="788.382" height="719" fill="white"/>
</clipPath>
</defs>
</svg>
